# This file uses centimeters as units for non-parametric coordinates.

mtllib Coin.mtl
g default
v 0.000000 -0.441262 0.028128
v 0.441262 0.000000 0.028128
v -0.440023 -0.002478 0.028128
v 0.000000 0.441262 0.028128
v -0.440023 -0.002478 -0.026386
v 0.000000 0.441262 -0.026386
v 0.000000 -0.441262 -0.026386
v 0.441262 0.000000 -0.026386
v 0.000000 -0.325029 0.044584
v 0.325029 0.000000 0.044584
v 0.000000 0.325029 0.044584
v -0.325029 0.000000 0.044584
v -0.325029 0.000000 -0.044584
v 0.000000 0.325029 -0.044584
v 0.325029 0.000000 -0.044584
v 0.000000 -0.325029 -0.044584
v 0.300834 0.000000 0.082721
v 0.000000 -0.300834 0.082721
v 0.000000 0.300834 0.082721
v -0.300835 0.000000 0.082721
v 0.000000 0.300834 -0.082721
v -0.300835 0.000000 -0.082721
v 0.300834 0.000000 -0.082721
v 0.000000 -0.300834 -0.082721
v -0.434956 -0.020907 0.029058
v -0.287037 -0.013797 0.082721
v -0.310122 -0.014907 0.044584
v 0.014907 0.310122 0.044584
v 0.013797 0.287037 0.082721
v 0.015393 0.438352 0.029061
v 0.015393 0.438352 -0.027259
v 0.013797 0.287037 -0.082721
v 0.014907 0.310122 -0.044584
v -0.310122 -0.014907 -0.044584
v -0.287037 -0.013797 -0.082721
v -0.434956 -0.020907 -0.027259
v 0.439146 -0.016718 0.029058
v 0.439146 -0.016718 -0.027259
v 0.289801 -0.011033 -0.082721
v 0.313109 -0.011920 -0.044584
v 0.002986 0.298203 -0.044584
v -0.011920 0.313110 -0.044584
v -0.011033 0.289802 -0.082721
v -0.016718 0.439146 -0.027259
v -0.016718 0.439146 0.029058
v -0.011033 0.289802 0.082721
v -0.011920 0.313110 0.044584
v 0.002987 0.298203 0.044584
v 0.313109 -0.011920 0.044584
v 0.289801 -0.011033 0.082721
v -0.017416 -0.438448 0.029058
v -0.011493 -0.289341 0.082721
v -0.012418 -0.312612 0.044584
v 0.300692 0.000498 0.044584
v 0.312611 0.012418 0.044584
v 0.289341 0.011493 0.082721
v 0.438447 0.017416 0.029058
v 0.438447 0.017416 -0.027259
v 0.289341 0.011493 -0.082721
v 0.312611 0.012418 -0.044584
v 0.300692 0.000498 -0.044584
v -0.012418 -0.312612 -0.044584
v -0.011493 -0.289341 -0.082721
v -0.017416 -0.438447 -0.027259
v 0.015916 -0.439947 0.029058
v 0.015916 -0.439947 -0.027259
v 0.010503 -0.290331 -0.082721
v 0.011348 -0.313681 -0.044584
v -0.001070 -0.301263 -0.044584
v -0.298774 -0.003558 -0.044584
v -0.313682 0.011348 -0.044584
v -0.290331 0.010503 -0.082721
v -0.439947 0.015916 -0.027259
v -0.439947 0.015916 0.029058
v -0.290331 0.010503 0.082721
v -0.313682 0.011348 0.044584
v -0.298774 -0.003559 0.044584
v -0.001070 -0.301263 0.044584
v 0.011348 -0.313681 0.044584
v 0.010503 -0.290331 0.082721
v 0.000000 -0.441262 0.030080
v 0.000000 -0.391468 0.081207
v 0.013990 -0.386705 0.082721
v 0.015916 -0.439947 0.029499
v 0.441262 0.000000 0.030037
v 0.391282 0.000000 0.081211
v 0.384855 0.015287 0.082721
v 0.438447 0.017416 0.029467
v -0.390030 -0.001401 0.081223
v -0.440023 -0.002478 0.030047
v -0.439947 0.015916 0.029686
v -0.386920 0.013998 0.082721
v -0.017416 -0.438448 0.029490
v -0.015288 -0.384878 0.082721
v -0.440023 -0.002478 -0.030047
v -0.390030 -0.001401 -0.081223
v -0.386920 0.013998 -0.082721
v -0.439947 0.015916 -0.029686
v 0.000000 0.441262 -0.029869
v 0.000000 0.391071 -0.081216
v 0.015393 0.438352 -0.029064
v 0.015186 0.383810 -0.082721
v 0.000000 -0.391468 -0.081207
v 0.000000 -0.441262 -0.030080
v 0.015916 -0.439947 -0.029499
v 0.013990 -0.386705 -0.082721
v -0.380601 -0.018294 -0.082721
v -0.434956 -0.020907 -0.029592
v -0.380601 -0.018295 0.082721
v -0.434956 -0.020907 0.029592
v 0.000000 0.391071 0.081216
v 0.000000 0.441262 0.029869
v 0.015186 0.383810 0.082721
v 0.438447 0.017416 -0.029467
v 0.384855 0.015287 -0.082721
v -0.015288 -0.384878 -0.082721
v -0.017416 -0.438447 -0.029490
v 0.441262 0.000000 -0.030037
v 0.391282 0.000000 -0.081211
v 0.385745 -0.014685 -0.082721
v 0.439146 -0.016718 -0.029483
v -0.016718 0.439146 -0.029483
v -0.014685 0.385745 -0.082721
v -0.014685 0.385745 0.082721
v -0.016718 0.439146 0.029483
v 0.439146 -0.016718 0.029483
v 0.385745 -0.014685 0.082721
vt 0.636060 0.258758
vt 0.636060 0.126256
vt 0.644397 0.128446
vt 0.644397 0.256704
vt 0.339760 0.258758
vt 0.339760 0.126256
vt 0.636060 0.125000
vt 0.644397 0.123931
vt 0.650896 0.126256
vt 0.650896 0.258758
vt 0.636060 0.264248
vt 0.644397 0.265317
vt 0.332582 0.256704
vt 0.332582 0.128446
vt 0.339760 0.125242
vt 0.339760 0.264007
vt 0.627040 0.003524
vt 0.617700 0.000000
vt 0.650896 0.124780
vt 0.650896 0.264469
vt 0.627040 0.385725
vt 0.617701 0.389249
vt 0.327401 0.258758
vt 0.327401 0.126256
vt 0.332582 0.123852
vt 0.332582 0.265396
vt 0.358012 0.000000
vt 0.358012 0.389249
vt 0.631401 0.000000
vt 0.631401 0.389249
vt 0.327401 0.264029
vt 0.327401 0.125219
vt 0.350249 0.003563
vt 0.350249 0.385685
vt 0.346976 0.389249
vt 0.346976 0.000000
vt 0.878205 0.453363
vt 0.878205 0.442793
vt 0.911056 0.435001
vt 0.911056 0.444785
vt 0.878205 0.231696
vt 0.911056 0.239619
vt 0.878205 0.222891
vt 0.911056 0.231469
vt 0.947537 0.212110
vt 0.980388 0.219901
vt 0.980388 0.230472
vt 0.947537 0.221894
vt 0.947537 0.016728
vt 0.980388 0.008805
vt 0.980388 0.000000
vt 0.947537 0.008578
vt 0.966796 0.652864
vt 0.999647 0.660655
vt 0.999647 0.671225
vt 0.966796 0.662647
vt 0.966796 0.457482
vt 0.999647 0.449559
vt 0.999647 0.440754
vt 0.966796 0.449332
vt 0.947537 0.453363
vt 0.947537 0.442793
vt 0.980388 0.435001
vt 0.980388 0.444785
vt 0.947537 0.231696
vt 0.980388 0.239619
vt 0.947537 0.222892
vt 0.980388 0.231470
vt 0.012380 0.263447
vt 0.012380 0.130716
vt 0.312360 0.130716
vt 0.312360 0.263453
vt 0.005190 0.261253
vt 0.005190 0.132774
vt 0.312360 0.126462
vt 0.012380 0.125513
vt 0.318865 0.132774
vt 0.318865 0.261253
vt 0.012380 0.264409
vt 0.000000 0.263447
vt 0.000000 0.130716
vt 0.005190 0.124168
vt 0.005190 0.265754
vt 0.318865 0.124564
vt 0.293047 0.000000
vt 0.030672 0.000000
vt 0.324055 0.130716
vt 0.324055 0.263447
vt 0.318865 0.265358
vt 0.030672 0.389922
vt 0.293047 0.389922
vt 0.000000 0.125474
vt 0.000000 0.264448
vt 0.022954 0.003559
vt 0.022954 0.386362
vt 0.301025 0.003548
vt 0.324055 0.125474
vt 0.324055 0.264448
vt 0.301025 0.386373
vt 0.019703 0.000000
vt 0.019703 0.389922
vt 0.304352 0.000000
vt 0.304352 0.389922
vt 0.945722 0.222892
vt 0.945722 0.231344
vt 0.912871 0.239293
vt 0.912871 0.231470
vt 0.945722 0.445316
vt 0.912871 0.437337
vt 0.945722 0.453363
vt 0.912871 0.444785
vt 0.945722 0.016401
vt 0.912871 0.008452
vt 0.912871 0.000000
vt 0.945722 0.008578
vt 0.945722 0.214446
vt 0.912871 0.222425
vt 0.912871 0.230472
vt 0.945722 0.221893
vt 0.911056 0.000000
vt 0.911056 0.008452
vt 0.878205 0.016401
vt 0.878205 0.008578
vt 0.911056 0.222425
vt 0.878205 0.214446
vt 0.911056 0.230471
vt 0.878205 0.221893
vt 0.941870 0.461710
vt 0.909019 0.453761
vt 0.909019 0.445309
vt 0.941870 0.453887
vt 0.941870 0.659754
vt 0.909019 0.667733
vt 0.909019 0.675780
vt 0.941870 0.667202
vt 0.292735 0.648728
vt 0.292735 0.517996
vt 0.589060 0.517996
vt 0.589060 0.648728
vt 0.589060 0.512833
vt 0.292735 0.512795
vt 0.292735 0.649751
vt 0.589060 0.649714
vt 0.310700 0.389249
vt 0.571078 0.389249
vt 0.310700 0.773298
vt 0.571078 0.773298
vt 0.589322 0.644548
vt 0.589322 0.513817
vt 0.885644 0.513817
vt 0.885644 0.644548
vt 0.885644 0.512832
vt 0.589322 0.512361
vt 0.589322 0.650182
vt 0.885644 0.649711
vt 0.607213 0.389249
vt 0.867662 0.389249
vt 0.607213 0.773294
vt 0.867662 0.773294
vt 0.511123 1.000000
vt 0.511123 0.989603
vt 0.519437 0.989603
vt 0.519437 1.000000
vt 0.300650 1.000000
vt 0.300650 0.989603
vt 0.511123 0.781959
vt 0.519437 0.781959
vt 0.292735 0.989603
vt 0.292735 1.000000
vt 0.300650 0.781959
vt 0.511123 0.773298
vt 0.519437 0.773298
vt 0.292735 0.781959
vt 0.300650 0.773298
vt 0.292735 0.773298
vt 0.869338 0.010397
vt 0.869338 0.000000
vt 0.877652 0.000000
vt 0.877652 0.010397
vt 0.658865 0.010397
vt 0.658865 0.000000
vt 0.877652 0.218041
vt 0.869338 0.218041
vt 0.650950 0.000000
vt 0.650950 0.010397
vt 0.658865 0.218041
vt 0.869338 0.226702
vt 0.877652 0.226702
vt 0.650950 0.218041
vt 0.658865 0.226702
vt 0.650950 0.226702
vt 0.248517 0.704539
vt 0.280728 0.669778
vt 0.287786 0.672971
vt 0.256218 0.704539
vt 0.053556 0.704539
vt 0.021137 0.669685
vt 0.290879 0.680549
vt 0.256218 0.712561
vt 0.014591 0.672906
vt 0.046224 0.704539
vt 0.290479 0.938193
vt 0.256218 0.904902
vt 0.046224 0.712561
vt 0.011555 0.680542
vt 0.287713 0.946027
vt 0.256218 0.914533
vt 0.046224 0.904902
vt 0.011999 0.935988
vt 0.280728 0.949294
vt 0.248517 0.914533
vt 0.014604 0.945175
vt 0.046224 0.914533
vt 0.021064 0.949464
vt 0.053556 0.914533
vt 0.236962 0.424841
vt 0.269173 0.390080
vt 0.276157 0.393347
vt 0.244663 0.424841
vt 0.042001 0.424841
vt 0.009509 0.389910
vt 0.278923 0.401181
vt 0.244663 0.434472
vt 0.003049 0.394199
vt 0.034669 0.424841
vt 0.279324 0.658825
vt 0.244663 0.626813
vt 0.034669 0.434472
vt 0.000444 0.403386
vt 0.276231 0.666404
vt 0.244663 0.634836
vt 0.034669 0.626813
vt 0.000000 0.658832
vt 0.269173 0.669596
vt 0.236962 0.634835
vt 0.003036 0.666469
vt 0.034669 0.634836
vt 0.009581 0.669689
vt 0.042001 0.634836
vn 0.000000 0.000000 1.000000
vn 0.000000 0.000000 1.000000
vn -0.000000 0.000000 1.000000
vn -0.000000 0.000000 1.000000
vn -0.695502 0.718524 0.000000
vn -0.695546 0.718481 0.000000
vn 0.024627 0.999697 0.000001
vn 0.024606 0.999697 0.000001
vn 0.000000 0.000000 -1.000000
vn 0.000000 0.000000 -1.000000
vn -0.000000 0.000000 -1.000000
vn -0.000000 0.000000 -1.000000
vn 0.718517 -0.695509 0.000000
vn 0.718559 -0.695466 0.000000
vn 0.999793 0.020351 -0.000001
vn 0.999793 0.020338 -0.000001
vn 0.695564 0.718464 0.000002
vn 0.695405 0.718618 0.000002
vn -0.717718 -0.696334 -0.000001
vn -0.717684 -0.696369 -0.000001
vn -0.990957 -0.134181 0.000001
vn -0.990955 -0.134191 0.000001
vn -0.645152 0.645176 -0.409301
vn -0.645162 0.645162 -0.409306
vn -0.645162 0.645162 -0.409307
vn -0.645152 0.645176 -0.409301
vn -0.645162 -0.645162 -0.409307
vn -0.645162 -0.645162 -0.409307
vn -0.645162 -0.645162 -0.409307
vn -0.645162 -0.645162 -0.409307
vn 0.645162 -0.645162 -0.409307
vn 0.645161 -0.645162 -0.409307
vn 0.645155 -0.645167 -0.409310
vn 0.645155 -0.645167 -0.409310
vn 0.645162 0.645162 -0.409307
vn 0.645162 0.645162 -0.409307
vn 0.645158 0.645167 -0.409305
vn 0.645158 0.645167 -0.409305
vn 0.645155 -0.645167 0.409310
vn 0.645161 -0.645162 0.409307
vn 0.645162 -0.645162 0.409307
vn 0.645155 -0.645167 0.409310
vn -0.645162 -0.645162 0.409307
vn -0.645163 -0.645161 0.409307
vn -0.645168 -0.645158 0.409304
vn -0.645168 -0.645158 0.409304
vn -0.645162 0.645162 0.409307
vn -0.645162 0.645162 0.409306
vn -0.645152 0.645176 0.409301
vn -0.645152 0.645176 0.409301
vn 0.645158 0.645167 0.409305
vn 0.645162 0.645162 0.409307
vn 0.645162 0.645162 0.409307
vn 0.645158 0.645167 0.409305
vn 0.645162 0.645162 -0.409307
vn 0.645162 0.645162 -0.409307
vn -0.000000 0.000000 1.000000
vn -0.000000 0.000000 1.000000
vn -0.645162 -0.645162 -0.409307
vn -0.645162 -0.645162 -0.409307
vn 0.716884 0.697192 0.000001
vn 0.716923 0.697153 0.000001
vn -0.645162 -0.645162 0.409307
vn -0.645162 -0.645163 0.409307
vn -0.000000 0.000000 -1.000000
vn -0.000000 0.000000 -1.000000
vn 0.645162 0.645162 0.409308
vn 0.645162 0.645162 0.409308
vn -0.695317 -0.718703 -0.000001
vn -0.695359 -0.718663 -0.000001
vn 0.695504 -0.718522 0.000000
vn 0.695458 -0.718567 0.000000
vn -0.645162 0.645162 0.409307
vn -0.645162 0.645162 0.409307
vn 0.000000 0.000000 -1.000000
vn 0.000000 0.000000 -1.000000
vn 0.000000 0.000000 -1.000000
vn 0.645162 -0.645162 0.409307
vn 0.645162 -0.645162 0.409307
vn -0.721489 0.692426 0.000000
vn -0.721441 0.692475 0.000000
vn 0.645162 -0.645162 -0.409307
vn 0.645162 -0.645162 -0.409307
vn 0.000000 0.000000 1.000000
vn 0.000000 0.000000 1.000000
vn -0.000000 0.000000 1.000000
vn -0.645162 0.645161 -0.409307
vn -0.645162 0.645162 -0.409307
vn 0.645155 0.645167 -0.409310
vn 0.645155 0.645167 -0.409310
vn -0.000000 0.000000 1.000000
vn -0.000000 0.000000 1.000000
vn 0.000000 0.000000 1.000000
vn -0.645157 -0.645169 -0.409304
vn -0.645157 -0.645169 -0.409304
vn -0.645153 -0.645175 0.409301
vn -0.645153 -0.645175 0.409301
vn -0.000000 0.000000 -1.000000
vn 0.000000 0.000000 -1.000000
vn -0.000000 0.000000 -1.000000
vn 0.645162 0.645162 0.409307
vn 0.645162 0.645162 0.409307
vn -0.044770 -0.998997 -0.000001
vn -0.044747 -0.998998 -0.000001
vn -0.645162 0.645162 0.409307
vn -0.645162 0.645162 0.409307
vn 0.000000 0.000000 -1.000000
vn 0.000000 0.000000 -1.000000
vn 0.000000 0.000000 -1.000000
vn 0.000000 0.000000 -1.000000
vn 0.645166 -0.645156 0.409310
vn 0.645166 -0.645156 0.409310
vn 0.645166 -0.645156 -0.409310
vn 0.645166 -0.645156 -0.409310
vn 0.000000 0.000000 1.000000
vn 0.000000 0.000000 1.000000
vn 0.000000 0.000000 1.000000
vn 0.000000 0.000000 1.000000
vn -0.645162 0.645162 -0.409307
vn -0.645162 0.645162 -0.409307
vn -0.034893 -0.709064 0.704280
vn -0.039555 -0.708913 0.704186
vn -0.559745 -0.569066 0.602369
vn -0.549930 -0.574205 0.606520
vn 0.553637 -0.578176 0.599331
vn 0.562950 -0.573420 0.595212
vn 0.578477 -0.553183 0.599461
vn 0.573556 -0.562852 0.595174
vn 0.708553 0.016380 0.705468
vn 0.708518 0.018668 0.705446
vn 0.578188 0.555561 0.597538
vn 0.573120 0.565514 0.593066
vn 0.554610 0.579909 0.596753
vn 0.564098 0.575109 0.592489
vn -0.700973 -0.122489 0.702591
vn -0.702579 -0.107962 0.703368
vn -0.574362 -0.550043 0.606267
vn -0.569363 -0.559797 0.602040
vn -0.710318 0.043328 0.702546
vn -0.710318 0.043328 0.702546
vn -0.569667 0.570168 0.591935
vn -0.569667 0.570168 0.591935
vn -0.562575 0.573842 0.595159
vn -0.552692 0.578856 0.599548
vn -0.702579 -0.107961 -0.703369
vn -0.700972 -0.122488 -0.702591
vn -0.569363 -0.559797 -0.602040
vn -0.574362 -0.550044 -0.606267
vn -0.710318 0.043330 -0.702546
vn -0.710318 0.043330 -0.702546
vn -0.569667 0.570168 -0.591935
vn -0.569667 0.570168 -0.591935
vn -0.552692 0.578856 -0.599548
vn -0.562575 0.573842 -0.595159
vn 0.034885 0.708022 -0.705328
vn 0.039117 0.707896 -0.705233
vn 0.554602 0.579904 -0.596765
vn 0.564093 0.575102 -0.592501
vn 0.578183 0.555554 -0.597549
vn 0.573116 0.565507 -0.593077
vn -0.039558 -0.708914 -0.704185
vn -0.034895 -0.709065 -0.704280
vn -0.549930 -0.574205 -0.606520
vn -0.559746 -0.569066 -0.602369
vn 0.562950 -0.573420 -0.595212
vn 0.553637 -0.578176 -0.599331
vn 0.573556 -0.562852 -0.595174
vn 0.578477 -0.553183 -0.599461
vn 0.039156 0.707900 0.705227
vn 0.034930 0.708026 0.705322
vn 0.708553 0.016382 -0.705467
vn 0.708518 0.018670 -0.705446
vn 0.000120 0.000692 1.000000
vn 0.000722 0.004176 0.999991
vn 0.009142 0.001079 0.999958
vn 0.009142 0.000272 0.999958
vn -0.000661 0.000121 1.000000
vn -0.004427 0.000810 0.999990
vn 0.002616 0.008749 0.999958
vn 0.000565 0.008734 0.999962
vn 0.004132 0.000714 0.999991
vn 0.000689 0.000119 1.000000
vn -0.009086 -0.007212 0.999933
vn -0.000948 0.004132 0.999991
vn -0.000154 0.000670 1.000000
vn -0.009133 -0.002102 0.999956
vn 0.000689 0.000119 -1.000000
vn 0.004132 0.000714 -0.999991
vn 0.002617 0.008749 -0.999958
vn 0.000566 0.008734 -0.999962
vn -0.004427 0.000810 -0.999990
vn -0.000661 0.000121 -1.000000
vn 0.009142 0.001079 -0.999958
vn 0.000722 0.004176 -0.999991
vn 0.000120 0.000692 -1.000000
vn 0.009142 0.000271 -0.999958
vn -0.000154 0.000670 -1.000000
vn -0.000947 0.004132 -0.999991
vn -0.009086 -0.007212 -0.999933
vn -0.009133 -0.002102 -0.999956
vn 0.992084 -0.125574 0.000000
vn 0.999801 0.019966 0.000000
vn 0.006226 0.999981 0.000000
vn -0.125590 0.992082 0.000000
vn -0.733783 -0.679384 0.000000
vn -0.991306 -0.131580 0.000000
vn -0.125589 0.992082 0.000000
vn 0.017249 0.999851 0.000000
vn 0.185733 0.982600 0.000000
vn 0.992084 -0.125574 0.000000
vn 0.999794 0.020282 0.000000
vn -0.721495 -0.692420 0.000000
vn -0.991107 -0.133070 0.000000
vn -0.707107 -0.707107 0.000000
vn 0.004323 -0.000786 0.999990
vn 0.000706 -0.000128 1.000000
vn 0.000127 -0.000700 1.000000
vn 0.000777 -0.004270 0.999991
vn 0.705327 0.708883 0.000000
vn 0.705330 0.708880 0.000000
vn 0.705330 0.708880 0.000000
vn 0.000777 -0.004270 -0.999991
vn 0.000127 -0.000700 -1.000000
vn 0.000706 -0.000128 -1.000000
vn 0.004323 -0.000786 -0.999990
vn -0.707107 -0.707107 0.000000
vn 0.707107 -0.707107 0.000000
vn 0.707107 -0.707107 0.000000
vn -0.004199 -0.000684 -0.999991
vn -0.000700 -0.000114 -1.000000
vn -0.000113 -0.000693 -1.000000
vn -0.000631 -0.003881 -0.999992
vn -0.707107 0.707107 0.000000
vn -0.707107 0.707107 0.000000
vn -0.707107 0.707107 0.000000
vn -0.707107 0.707107 0.000000
vn -0.000631 -0.003881 0.999992
vn -0.000113 -0.000693 1.000000
vn -0.000700 -0.000114 1.000000
vn -0.004199 -0.000684 0.999991
vn 0.707107 -0.707107 0.000000
vn 0.707107 -0.707107 0.000000
vn -0.159525 -0.987194 0.000000
vn -0.044822 -0.998995 0.000000
vn -0.002310 -0.009153 0.999955
vn -0.000571 -0.009153 0.999958
vn 0.987195 0.159521 0.000000
vn 0.987192 0.159536 0.000000
vn -0.002310 -0.009153 -0.999955
vn -0.000571 -0.009153 -0.999958
vn -0.159537 -0.987192 0.000000
vn -0.044970 -0.998988 0.000000
vn 0.082321 -0.996606 0.000000
vn -0.999992 0.004125 0.000000
vn -0.999991 0.004127 0.000000
vn 0.082321 -0.996606 0.000000
s 1
g Coin
usemtl initialShadingGroup
f 47/160/1 48/161/2 28/162/3 11/163/4
s 2
f 44/87/5 45/88/6 4/78/7 6/77/8
s 3
f 41/176/9 42/177/10 14/178/11 33/179/12
s 2
f 37/80/13 38/81/14 8/74/15 2/73/16
f 30/72/17 31/71/18 6/77/8 4/78/7
f 36/1/19 25/2/20 3/3/21 5/4/22
s 7
f 10/104/23 49/105/24 50/106/25 17/107/26
s 8
f 11/37/27 28/38/28 29/39/29 19/40/30
s 9
f 46/112/31 47/113/32 11/114/33 19/115/34
s 10
f 26/45/35 27/46/36 12/47/37 20/48/38
s 11
f 14/120/39 42/121/40 43/122/41 21/123/42
s 12
f 32/53/43 33/54/44 14/55/45 21/56/46
s 13
f 39/128/47 40/129/48 15/130/49 23/131/50
s 14
f 13/61/51 34/62/52 35/63/53 22/64/54
s 10
f 52/49/55 53/50/56 27/46/36 26/45/35
s 1
f 48/161/2 54/166/57 55/167/58 28/162/3
s 8
f 29/39/29 28/38/28 55/41/59 56/42/60
s 2
f 57/69/61 58/70/62 31/71/18 30/72/17
s 12
f 59/57/63 60/58/64 33/54/44 32/53/43
s 3
f 60/182/65 61/183/66 41/176/9 33/179/12
s 14
f 35/63/53 34/62/52 62/65/67 63/66/68
s 2
f 64/5/69 51/6/70 25/2/20 36/1/19
f 65/136/71 66/137/72 38/138/14 37/139/13
s 13
f 67/132/73 68/133/74 40/129/48 39/128/47
s 3
f 69/186/75 70/180/76 41/176/9 61/183/66
f 70/180/76 71/181/77 42/177/10 41/176/9
s 11
f 43/122/41 42/121/40 71/124/78 72/125/79
s 2
f 73/148/80 74/149/81 45/150/6 44/151/5
s 9
f 75/116/82 76/117/83 47/113/32 46/112/31
s 1
f 76/164/84 77/165/85 48/161/2 47/160/1
f 77/165/85 78/170/86 54/166/57 48/161/2
s 7
f 50/106/25 49/105/24 79/108/87 80/109/88
s 10
f 9/51/89 53/50/56 52/49/55 18/52/90
s 1
f 78/170/86 79/174/91 49/171/92 54/166/57
f 55/167/58 54/166/57 49/171/92 10/172/93
s 8
f 56/42/60 55/41/59 10/43/94 17/44/95
s 2
f 2/73/16 8/74/15 58/70/62 57/69/61
s 12
f 15/59/96 60/58/64 59/57/63 23/60/97
s 3
f 40/187/98 61/183/66 60/182/65 15/188/99
f 68/190/100 69/186/75 61/183/66 40/187/98
s 14
f 63/66/68 62/65/67 16/67/101 24/68/102
s 2
f 7/13/103 1/14/104 51/6/70 64/5/69
f 7/13/103 66/23/72 65/24/71 1/14/104
s 13
f 16/134/105 68/133/74 67/132/73 24/135/106
s 3
f 62/189/107 69/186/75 68/190/100 16/191/108
f 34/185/109 70/180/76 69/186/75 62/189/107
f 13/184/110 71/181/77 70/180/76 34/185/109
s 11
f 72/125/79 71/124/78 13/126/111 22/127/112
s 2
f 3/3/21 74/9/81 73/10/80 5/4/22
s 9
f 12/118/113 76/117/83 75/116/82 20/119/114
s 1
f 27/168/115 77/165/85 76/164/84 12/169/116
f 53/173/117 78/170/86 77/165/85 27/168/115
f 9/175/118 79/174/91 78/170/86 53/173/117
s 7
f 80/109/88 79/108/87 9/110/119 18/111/120
s 15
f 81/25/121 82/33/122 94/27/123 93/15/124
f 82/33/122 81/25/121 84/32/125 83/36/126
f 83/146/126 84/142/125 126/143/127 127/147/128
f 85/83/129 86/95/130 127/101/128 126/93/127
f 86/95/130 85/83/129 88/79/131 87/90/132
f 87/90/132 88/79/131 30/72/133 113/91/134
f 89/17/135 90/8/136 110/7/137 109/18/138
f 90/8/136 89/17/135 92/29/139 91/19/140
f 91/153/141 92/156/142 124/157/143 125/152/144
f 93/15/124 94/27/123 109/18/138 110/7/137
s 18
f 95/12/145 96/21/146 107/22/147 108/11/148
f 96/21/146 95/12/145 98/20/149 97/30/150
f 97/158/151 98/154/152 122/155/153 123/159/154
f 99/84/155 100/96/156 123/102/154 122/97/153
f 100/96/156 99/84/155 101/75/157 102/85/158
f 102/85/158 101/75/157 114/76/159 115/86/160
f 103/34/161 104/26/162 117/16/163 116/28/164
f 104/26/162 103/34/161 106/35/165 105/31/166
f 105/141/166 106/144/165 120/145/167 121/140/168
f 108/11/148 107/22/147 116/28/164 117/16/163
s 15
f 111/99/169 112/89/170 125/98/144 124/103/143
f 112/89/170 111/99/169 113/91/134 30/72/133
s 18
f 115/86/160 114/76/159 118/82/171 119/94/172
f 119/94/172 118/82/171 121/92/168 120/100/167
s 21
f 50/192/173 127/193/174 86/194/175 17/195/176
f 29/203/177 113/202/178 111/206/179 19/207/180
f 111/206/179 124/210/181 46/211/182 19/207/180
f 89/212/183 109/209/184 26/208/185 20/213/186
s 24
f 43/216/187 123/217/188 100/218/189 21/219/190
f 100/218/189 102/222/191 32/223/192 21/219/190
f 119/230/193 120/234/194 39/235/195 23/231/196
f 35/228/197 107/229/198 96/224/199 22/225/200
s 2
f 126/93/201 37/80/13 2/73/16 85/83/202
f 30/72/17 4/78/7 112/89/203
f 4/78/7 45/88/6 125/98/204 112/89/203
f 3/3/21 25/2/20 110/7/205 90/8/206
f 122/97/207 44/87/5 6/77/8 99/84/208
f 6/77/8 31/71/18 101/75/209 99/84/208
f 8/74/15 38/81/14 121/92/210 118/82/211
f 108/11/212 36/1/19 5/4/22 95/12/213
f 110/7/205 25/2/20 51/6/70 93/15/214
s 21
f 26/208/185 109/209/184 94/205/215 52/204/216
f 56/199/217 87/198/218 113/202/178 29/203/177
s 2
f 88/79/219 57/69/61 30/72/17
f 101/75/220 31/71/18 58/70/62 114/76/221
s 24
f 32/223/192 102/222/191 115/226/222 59/227/223
f 63/232/224 116/233/225 107/229/198 35/228/197
s 2
f 117/16/226 64/5/69 36/1/19 108/11/212
f 121/140/227 38/138/14 66/137/72 105/141/228
s 24
f 39/235/195 120/234/194 106/238/229 67/239/230
f 72/220/231 97/221/232 123/217/188 43/216/187
s 2
f 98/154/233 73/148/80 44/151/5 122/155/234
f 125/152/235 45/150/6 74/149/81 91/153/236
s 21
f 46/211/182 124/210/181 92/214/237 75/215/238
f 80/196/239 83/197/240 127/193/174 50/192/173
s 2
f 84/142/241 65/136/71 37/139/13 126/143/242
f 93/15/243 51/6/70 1/14/104 81/25/244
s 21
f 52/204/216 94/205/215 82/200/245 18/201/246
f 86/194/175 87/198/218 56/199/217 17/195/176
s 2
f 2/73/16 57/69/61 88/79/247 85/83/202
f 114/76/248 58/70/62 8/74/15 118/82/211
s 24
f 59/227/223 115/226/222 119/230/193 23/231/196
f 103/236/249 116/233/225 63/232/224 24/237/250
s 2
f 7/13/103 64/5/69 117/16/251 104/26/252
f 105/31/253 66/23/72 7/13/103 104/26/252
s 24
f 67/239/230 106/238/229 103/236/249 24/237/250
f 96/224/199 97/221/232 72/220/231 22/225/200
s 2
f 5/4/22 73/10/80 98/20/254 95/12/213
f 91/19/255 74/9/81 3/3/21 90/8/206
s 21
f 75/215/238 92/214/237 89/212/183 20/213/186
f 82/200/245 83/197/240 80/196/239 18/201/246
s 2
f 1/14/104 65/24/71 84/32/256 81/25/244
