# This file uses centimeters as units for non-parametric coordinates.

mtllib OutsideCorner_LP.mtl
g default
v -1.000000 0.000000 1.000000
v 0.000000 0.000000 1.000000
v -1.000000 1.000000 1.000000
v 0.000000 1.000000 1.000000
v -1.000000 1.000000 0.000000
v 0.000000 1.000000 0.000000
v -1.000000 0.000000 0.000000
v 0.000000 0.000000 0.000000
v -2.000000 0.000000 0.000000
v -2.000000 0.000000 1.000000
v -2.000000 1.000000 1.000000
v -2.000000 1.000000 0.000000
v -3.000000 0.000000 0.000000
v -3.000000 0.000000 1.000000
v -3.000000 1.000000 1.000000
v -3.000000 1.000000 0.000000
v -4.000000 0.000000 0.000000
v -4.000000 0.000000 1.000000
v -4.000000 1.000000 1.000000
v -4.000000 1.000000 0.000000
v -1.000000 2.000000 1.000000
v 0.000000 2.000000 1.000000
v 0.000000 2.000000 0.000000
v -1.000000 2.000000 0.000000
v -2.000000 2.000000 1.000000
v -2.000000 2.000000 0.000000
v -3.000000 2.000000 0.000000
v -3.000000 2.000000 1.000000
v -4.000000 2.000000 0.000000
v -4.000000 2.000000 1.000000
v -2.000000 3.000000 1.000000
v -2.000000 3.000000 0.000000
v -3.000000 3.000000 0.000000
v -3.000000 3.000000 1.000000
v -4.000000 3.000000 0.000000
v -4.000000 3.000000 1.000000
v -3.000000 4.000000 1.000000
v -3.000000 4.000000 0.000000
v -4.000000 4.000000 0.000000
v -4.000000 4.000000 1.000000
v -3.000000 1.000000 -1.000000
v -3.000000 0.000000 -1.000000
v -4.000000 0.000000 -1.000000
v -4.000000 1.000000 -1.000000
v -4.000000 2.000000 -1.000000
v -3.000000 2.000000 -1.000000
v -3.000000 1.000000 -2.000000
v -3.000000 0.000000 -2.000000
v -4.000000 0.000000 -2.000000
v -4.000000 1.000000 -2.000000
v -4.000000 2.000000 -2.000000
v -3.000000 2.000000 -2.000000
v -3.000000 3.000000 -1.000000
v -4.000000 3.000000 -1.000000
v -3.000000 3.000000 -2.000000
v -4.000000 3.000000 -2.000000
v -3.000000 1.000000 -3.000000
v -3.000000 0.000000 -3.000000
v -4.000000 0.000000 -3.000000
v -4.000000 1.000000 -3.000000
vt 0.808231 0.000000
vt 0.908231 0.000000
vt 0.908231 0.100000
vt 0.808231 0.100000
vt 0.908231 0.200000
vt 0.808231 0.200000
vt 0.602671 0.000000
vt 0.702671 0.000000
vt 0.702671 0.100000
vt 0.602671 0.100000
vt 0.702671 0.200000
vt 0.602671 0.200000
vt 0.502671 0.100000
vt 0.502671 0.000000
vt 0.702671 0.300000
vt 0.602671 0.300000
vt 0.502671 0.200000
vt 0.402671 0.100000
vt 0.402671 0.000000
vt 0.702671 0.400000
vt 0.602671 0.400000
vt 0.402671 0.200000
vt 0.302671 0.100000
vt 0.302671 0.000000
vt 0.502671 0.300000
vt 0.402671 0.300000
vt 0.808231 0.300000
vt 0.908231 0.300000
vt 0.908231 0.400000
vt 0.808231 0.400000
vt 0.705123 0.200000
vt 0.805123 0.200000
vt 0.805123 0.300000
vt 0.705123 0.300000
vt 0.805123 0.400000
vt 0.705123 0.400000
vt 0.808231 0.200000
vt 0.908231 0.200000
vt 0.908231 0.300000
vt 0.808231 0.300000
vt 0.103108 0.800000
vt 0.103108 0.700000
vt 0.203108 0.700000
vt 0.203108 0.800000
vt 0.303108 0.700000
vt 0.303108 0.800000
vt 0.103108 0.900000
vt 0.203108 0.900000
vt 0.403108 0.700000
vt 0.403108 0.800000
vt 0.303108 0.900000
vt 0.303108 1.000000
vt 0.203108 1.000000
vt 0.804905 0.600000
vt 0.904904 0.600000
vt 0.904904 0.700000
vt 0.804905 0.700000
vt 0.702452 0.600000
vt 0.802452 0.600000
vt 0.802452 0.700000
vt 0.702452 0.700000
vt 0.602452 0.700000
vt 0.602452 0.600000
vt 0.502452 0.700000
vt 0.502452 0.600000
vt 0.402452 0.700000
vt 0.402452 0.600000
vt 0.402452 0.500000
vt 0.502452 0.500000
vt 0.402452 0.400000
vt 0.502452 0.400000
vt 0.402452 0.300000
vt 0.502452 0.300000
vt 0.708667 0.400000
vt 0.708667 0.500000
vt 0.608667 0.500000
vt 0.608667 0.400000
vt 0.505778 0.700000
vt 0.505778 0.800000
vt 0.405778 0.800000
vt 0.405778 0.700000
vt 0.302889 0.100000
vt 0.302889 0.200000
vt 0.202889 0.200000
vt 0.202889 0.100000
vt 0.505560 0.400000
vt 0.605560 0.400000
vt 0.605560 0.500000
vt 0.505560 0.500000
vt 0.814883 0.400000
vt 0.914883 0.400000
vt 0.914883 0.500000
vt 0.814883 0.500000
vt 0.103108 0.000000
vt 0.203108 0.000000
vt 0.203108 0.100000
vt 0.103108 0.100000
vt 0.300000 0.400000
vt 0.400000 0.400000
vt 0.400000 0.500000
vt 0.300000 0.500000
vt 0.400000 0.600000
vt 0.300000 0.600000
vt 0.200000 0.500000
vt 0.200000 0.400000
vt 0.100000 0.500000
vt 0.100000 0.400000
vt 0.200000 0.600000
vt 0.100000 0.600000
vt 0.000000 0.500000
vt 0.000000 0.400000
vt 0.200000 0.700000
vt 0.100000 0.700000
vt 0.000000 0.600000
vt 0.000000 0.700000
vt 0.100000 0.800000
vt 0.000000 0.800000
vt 0.300000 0.300000
vt 0.400000 0.300000
vt 0.400000 0.400000
vt 0.300000 0.400000
vt 0.300000 0.200000
vt 0.400000 0.200000
vt 0.200000 0.400000
vt 0.200000 0.300000
vt 0.100000 0.400000
vt 0.100000 0.300000
vt 0.100000 0.200000
vt 0.200000 0.200000
vt 0.100000 0.100000
vt 0.200000 0.100000
vt 0.000000 0.200000
vt 0.000000 0.100000
vt 0.000000 0.000000
vt 0.100000 0.000000
vt 0.811775 0.400000
vt 0.811775 0.500000
vt 0.711775 0.500000
vt 0.711775 0.400000
vt 0.805123 0.200000
vt 0.705123 0.200000
vt 0.705123 0.100000
vt 0.805123 0.100000
vt 0.705123 0.000000
vt 0.805123 0.000000
vt 0.804905 0.500000
vt 0.904905 0.500000
vt 0.904905 0.600000
vt 0.804905 0.600000
vn 0.000000 0.000000 1.000000
vn 0.000000 0.000000 1.000000
vn 0.000000 0.000000 1.000000
vn 0.000000 0.000000 1.000000
vn 0.000000 1.000000 0.000000
vn 0.000000 1.000000 0.000000
vn 0.000000 1.000000 0.000000
vn 0.000000 1.000000 0.000000
vn 0.000000 0.000000 -1.000000
vn 0.000000 0.000000 -1.000000
vn 0.000000 0.000000 -1.000000
vn 0.000000 0.000000 -1.000000
vn 0.000000 -1.000000 0.000000
vn 0.000000 -1.000000 0.000000
vn 0.000000 -1.000000 0.000000
vn 0.000000 -1.000000 0.000000
vn 1.000000 0.000000 0.000000
vn 1.000000 0.000000 0.000000
vn 1.000000 0.000000 0.000000
vn 1.000000 0.000000 0.000000
vn -1.000000 0.000000 0.000000
vn -1.000000 0.000000 0.000000
vn -1.000000 0.000000 0.000000
vn -1.000000 0.000000 0.000000
vn 0.000000 -1.000000 0.000000
vn 0.000000 -1.000000 0.000000
vn 0.000000 -1.000000 0.000000
vn 0.000000 -1.000000 0.000000
vn 0.000000 0.000000 1.000000
vn 0.000000 0.000000 1.000000
vn 0.000000 0.000000 1.000000
vn 0.000000 0.000000 1.000000
vn 0.000000 1.000000 0.000000
vn 0.000000 1.000000 0.000000
vn 0.000000 1.000000 0.000000
vn 0.000000 1.000000 0.000000
vn 0.000000 0.000000 -1.000000
vn 0.000000 0.000000 -1.000000
vn 0.000000 0.000000 -1.000000
vn 0.000000 0.000000 -1.000000
vn 0.000000 -1.000000 0.000000
vn 0.000000 -1.000000 0.000000
vn 0.000000 -1.000000 0.000000
vn 0.000000 -1.000000 0.000000
vn 0.000000 0.000000 1.000000
vn 0.000000 0.000000 1.000000
vn 0.000000 0.000000 1.000000
vn 0.000000 0.000000 1.000000
vn 0.000000 1.000000 0.000000
vn 0.000000 1.000000 0.000000
vn 0.000000 1.000000 0.000000
vn 0.000000 1.000000 0.000000
vn 0.000000 0.000000 -1.000000
vn 0.000000 0.000000 -1.000000
vn 0.000000 0.000000 -1.000000
vn 0.000000 0.000000 -1.000000
vn 0.000000 -1.000000 0.000000
vn 0.000000 -1.000000 0.000000
vn 0.000000 -1.000000 0.000000
vn 0.000000 -1.000000 0.000000
vn 0.000000 0.000000 1.000000
vn 0.000000 0.000000 1.000000
vn 0.000000 0.000000 1.000000
vn 0.000000 0.000000 1.000000
vn 0.000000 1.000000 0.000000
vn 0.000000 1.000000 0.000000
vn 0.000000 1.000000 0.000000
vn 0.000000 1.000000 0.000000
vn 0.000000 0.000000 -1.000000
vn 0.000000 0.000000 -1.000000
vn 0.000000 0.000000 -1.000000
vn 0.000000 0.000000 -1.000000
vn 0.000000 0.000000 1.000000
vn 0.000000 0.000000 1.000000
vn 0.000000 0.000000 1.000000
vn 0.000000 0.000000 1.000000
vn 1.000000 0.000000 0.000000
vn 1.000000 0.000000 0.000000
vn 1.000000 0.000000 0.000000
vn 1.000000 0.000000 0.000000
vn 0.000000 0.000000 -1.000000
vn 0.000000 0.000000 -1.000000
vn 0.000000 0.000000 -1.000000
vn 0.000000 0.000000 -1.000000
vn -1.000000 0.000000 0.000000
vn -1.000000 0.000000 0.000000
vn -1.000000 0.000000 0.000000
vn -1.000000 0.000000 0.000000
vn 1.000000 0.000000 0.000000
vn 1.000000 0.000000 0.000000
vn 1.000000 0.000000 0.000000
vn 1.000000 0.000000 0.000000
vn 0.000000 0.000000 -1.000000
vn 0.000000 0.000000 -1.000000
vn 0.000000 0.000000 -1.000000
vn 0.000000 0.000000 -1.000000
vn 0.000000 0.000000 1.000000
vn 0.000000 0.000000 1.000000
vn 0.000000 0.000000 1.000000
vn 0.000000 0.000000 1.000000
vn 0.000000 0.000000 -1.000000
vn 0.000000 0.000000 -1.000000
vn 0.000000 0.000000 -1.000000
vn 0.000000 0.000000 -1.000000
vn -1.000000 0.000000 0.000000
vn -1.000000 0.000000 0.000000
vn -1.000000 0.000000 0.000000
vn -1.000000 0.000000 0.000000
vn 0.000000 0.000000 1.000000
vn 0.000000 0.000000 1.000000
vn 0.000000 0.000000 1.000000
vn 0.000000 0.000000 1.000000
vn 1.000000 0.000000 0.000000
vn 1.000000 0.000000 0.000000
vn 1.000000 0.000000 0.000000
vn 1.000000 0.000000 0.000000
vn 0.000000 0.000000 -1.000000
vn 0.000000 0.000000 -1.000000
vn 0.000000 0.000000 -1.000000
vn 0.000000 0.000000 -1.000000
vn 0.000000 0.000000 1.000000
vn 0.000000 0.000000 1.000000
vn 0.000000 0.000000 1.000000
vn 0.000000 0.000000 1.000000
vn 0.000000 0.000000 -1.000000
vn 0.000000 0.000000 -1.000000
vn 0.000000 0.000000 -1.000000
vn 0.000000 0.000000 -1.000000
vn -1.000000 0.000000 0.000000
vn -1.000000 0.000000 0.000000
vn -1.000000 0.000000 0.000000
vn -1.000000 0.000000 0.000000
vn 0.000000 0.000000 1.000000
vn 0.000000 0.000000 1.000000
vn 0.000000 0.000000 1.000000
vn 0.000000 0.000000 1.000000
vn 1.000000 0.000000 0.000000
vn 1.000000 0.000000 0.000000
vn 1.000000 0.000000 0.000000
vn 1.000000 0.000000 0.000000
vn 0.000000 0.000000 -1.000000
vn 0.000000 0.000000 -1.000000
vn 0.000000 0.000000 -1.000000
vn 0.000000 0.000000 -1.000000
vn -1.000000 0.000000 0.000000
vn -1.000000 0.000000 0.000000
vn -1.000000 0.000000 0.000000
vn -1.000000 0.000000 0.000000
vn 0.000000 0.000000 1.000000
vn 0.000000 0.000000 1.000000
vn 0.000000 0.000000 1.000000
vn 0.000000 0.000000 1.000000
vn 1.000000 0.000000 0.000000
vn 1.000000 0.000000 0.000000
vn 1.000000 0.000000 0.000000
vn 1.000000 0.000000 0.000000
vn 0.000000 -1.000000 0.000000
vn 0.000000 -1.000000 0.000000
vn 0.000000 -1.000000 0.000000
vn 0.000000 -1.000000 0.000000
vn -1.000000 0.000000 0.000000
vn -1.000000 0.000000 0.000000
vn -1.000000 0.000000 0.000000
vn -1.000000 0.000000 0.000000
vn -1.000000 0.000000 0.000000
vn -1.000000 0.000000 0.000000
vn -1.000000 0.000000 0.000000
vn -1.000000 0.000000 0.000000
vn 0.000000 1.000000 0.000000
vn 0.000000 1.000000 0.000000
vn 0.000000 1.000000 0.000000
vn 0.000000 1.000000 0.000000
vn 1.000000 0.000000 0.000000
vn 1.000000 0.000000 0.000000
vn 1.000000 0.000000 0.000000
vn 1.000000 0.000000 0.000000
vn 1.000000 0.000000 0.000000
vn 1.000000 0.000000 0.000000
vn 1.000000 0.000000 0.000000
vn 1.000000 0.000000 0.000000
vn 0.000000 -1.000000 0.000000
vn 0.000000 -1.000000 0.000000
vn 0.000000 -1.000000 0.000000
vn 0.000000 -1.000000 0.000000
vn -1.000000 0.000000 0.000000
vn -1.000000 0.000000 0.000000
vn -1.000000 0.000000 0.000000
vn -1.000000 0.000000 0.000000
vn -1.000000 0.000000 0.000000
vn -1.000000 0.000000 0.000000
vn -1.000000 0.000000 0.000000
vn -1.000000 0.000000 0.000000
vn 0.000000 1.000000 0.000000
vn 0.000000 1.000000 0.000000
vn 0.000000 1.000000 0.000000
vn 0.000000 1.000000 0.000000
vn 1.000000 0.000000 0.000000
vn 1.000000 0.000000 0.000000
vn 1.000000 0.000000 0.000000
vn 1.000000 0.000000 0.000000
vn 0.000000 0.000000 1.000000
vn 0.000000 0.000000 1.000000
vn 0.000000 0.000000 1.000000
vn 0.000000 0.000000 1.000000
vn 1.000000 0.000000 0.000000
vn 1.000000 0.000000 0.000000
vn 1.000000 0.000000 0.000000
vn 1.000000 0.000000 0.000000
vn 0.000000 0.000000 -1.000000
vn 0.000000 0.000000 -1.000000
vn 0.000000 0.000000 -1.000000
vn 0.000000 0.000000 -1.000000
vn -1.000000 0.000000 0.000000
vn -1.000000 0.000000 0.000000
vn -1.000000 0.000000 0.000000
vn -1.000000 0.000000 0.000000
vn 1.000000 0.000000 0.000000
vn 1.000000 0.000000 0.000000
vn 1.000000 0.000000 0.000000
vn 1.000000 0.000000 0.000000
vn 0.000000 -1.000000 0.000000
vn 0.000000 -1.000000 0.000000
vn 0.000000 -1.000000 0.000000
vn 0.000000 -1.000000 0.000000
vn -1.000000 0.000000 0.000000
vn -1.000000 0.000000 0.000000
vn -1.000000 0.000000 0.000000
vn -1.000000 0.000000 0.000000
vn 0.000000 1.000000 0.000000
vn 0.000000 1.000000 0.000000
vn 0.000000 1.000000 0.000000
vn 0.000000 1.000000 0.000000
s off
g OutsideCorner_LP Low_Poly v2
usemtl initialShadingGroup
f 1/98/1 2/99/2 4/100/3 3/101/4
f 21/54/5 22/55/6 23/56/7 24/57/8
f 5/118/9 6/119/10 8/120/11 7/121/12
f 7/58/13 8/59/14 2/60/15 1/61/16
f 2/1/17 8/2/18 6/3/19 4/4/20
f 17/7/21 18/8/22 19/9/23 20/10/24
f 7/58/25 1/61/26 10/62/27 9/63/28
f 1/98/29 3/101/30 11/104/31 10/105/32
f 3/74/33 5/75/34 12/76/35 11/77/36
f 5/118/37 7/121/38 9/124/39 12/125/40
f 9/63/41 10/62/42 14/64/43 13/65/44
f 10/105/45 11/104/46 15/106/47 14/107/48
f 31/78/49 32/79/50 33/80/51 34/81/52
f 12/125/53 9/124/54 13/126/55 16/127/56
f 13/65/57 14/64/58 18/66/59 17/67/60
f 14/107/61 15/106/62 19/110/63 18/111/64
f 37/82/65 38/83/66 39/84/67 40/85/68
f 57/136/69 58/137/70 59/138/71 60/139/72
f 3/101/73 4/100/74 22/102/75 21/103/76
f 4/4/77 6/3/78 23/5/79 22/6/80
f 6/119/81 5/118/82 24/122/83 23/123/84
f 5/27/85 3/28/86 21/29/87 24/30/88
f 11/31/89 12/32/90 26/33/91 25/34/92
f 12/125/93 16/127/94 27/128/95 26/129/96
f 15/106/97 11/104/98 25/108/99 28/109/100
f 47/140/101 50/141/102 51/142/103 52/143/104
f 20/10/105 19/9/106 30/11/107 29/12/108
f 19/110/109 15/106/110 28/109/111 30/114/112
f 25/34/113 26/33/114 32/35/115 31/36/116
f 26/129/117 27/128/118 33/130/119 32/131/120
f 28/109/121 25/108/122 31/112/123 34/113/124
f 27/128/125 29/132/126 35/133/127 33/130/128
f 29/12/129 30/11/130 36/15/131 35/16/132
f 30/114/133 28/109/134 34/113/135 36/115/136
f 34/37/137 33/38/138 38/39/139 37/40/140
f 33/130/141 35/133/142 39/134/143 38/135/144
f 35/16/145 36/15/146 40/20/147 39/21/148
f 36/115/149 34/113/150 37/116/151 40/117/152
f 16/41/153 13/42/154 42/43/155 41/44/156
f 13/65/157 17/67/158 43/68/159 42/69/160
f 17/7/161 20/10/162 44/13/163 43/14/164
f 20/10/165 29/12/166 45/17/167 44/13/168
f 29/86/169 27/87/170 46/88/171 45/89/172
f 27/47/173 16/41/174 41/44/175 46/48/176
f 41/44/177 42/43/178 48/45/179 47/46/180
f 42/69/181 43/68/182 49/70/183 48/71/184
f 43/14/185 44/13/186 50/18/187 49/19/188
f 44/13/189 45/17/190 51/22/191 50/18/192
f 54/90/193 53/91/194 55/92/195 56/93/196
f 46/48/197 41/44/198 47/46/199 52/51/200
f 45/146/201 46/147/202 53/148/203 54/149/204
f 46/48/205 52/51/206 55/52/207 53/53/208
f 52/143/209 51/142/210 56/144/211 55/145/212
f 51/22/213 45/17/214 54/25/215 56/26/216
f 47/46/217 48/45/218 58/49/219 57/50/220
f 48/71/221 49/70/222 59/72/223 58/73/224
f 49/19/225 50/18/226 60/23/227 59/24/228
f 50/94/229 47/95/230 57/96/231 60/97/232
