# This file uses centimeters as units for non-parametric coordinates.

mtllib Wall2_LP.mtl
g default
v -1.000000 0.000000 1.000000
v 0.000000 0.000000 1.000000
v -1.000000 1.000000 1.000000
v 0.000000 1.000000 1.000000
v -1.000000 1.000000 0.000000
v 0.000000 1.000000 0.000000
v -1.000000 0.000000 0.000000
v 0.000000 0.000000 0.000000
v -2.000000 0.000000 0.000000
v -2.000000 0.000000 1.000000
v -2.000000 1.000000 1.000000
v -2.000000 1.000000 0.000000
v -3.000000 0.000000 0.000000
v -3.000000 0.000000 1.000000
v -3.000000 1.000000 1.000000
v -3.000000 1.000000 0.000000
v -1.000000 2.000000 1.000000
v -1.000000 2.000000 0.000000
v -2.000000 2.000000 0.000000
v -2.000000 2.000000 1.000000
v -3.000000 2.000000 0.000000
v -3.000000 2.000000 1.000000
v -1.000000 3.000000 1.000000
v -1.000000 3.000000 0.000000
v -2.000000 3.000000 0.000000
v -2.000000 3.000000 1.000000
vt 0.335195 0.666667
vt 0.501861 0.666667
vt 0.501861 0.833333
vt 0.335195 0.833333
vt 0.673955 0.000000
vt 0.840622 0.000000
vt 0.840622 0.166667
vt 0.673955 0.166667
vt 0.840622 0.333333
vt 0.673955 0.333333
vt 0.167597 0.500000
vt 0.334264 0.500000
vt 0.334264 0.666667
vt 0.167597 0.666667
vt 0.334264 0.833333
vt 0.167597 0.833333
vt 0.670390 0.500000
vt 0.837056 0.500000
vt 0.837056 0.666667
vt 0.670390 0.666667
vt 0.335195 0.666667
vt 0.335195 0.500000
vt 0.501861 0.500000
vt 0.501861 0.666667
vt 0.000000 0.666667
vt 0.000000 0.500000
vt 0.166667 0.500000
vt 0.166667 0.666667
vt 0.166667 0.833333
vt 0.000000 0.833333
vt 0.166667 1.000000
vt 0.000000 1.000000
vt 0.502792 0.666667
vt 0.669459 0.666667
vt 0.669459 0.833333
vt 0.502792 0.833333
vt 0.502792 0.500000
vt 0.669459 0.500000
vt 0.669459 0.666667
vt 0.502792 0.666667
vt 0.333333 0.000000
vt 0.500000 0.000000
vt 0.500000 0.166667
vt 0.333333 0.166667
vt 0.166667 0.166667
vt 0.166667 0.000000
vt 0.333333 0.333333
vt 0.166667 0.333333
vt 0.000000 0.166667
vt 0.000000 0.000000
vt 0.333333 0.500000
vt 0.166667 0.500000
vt 0.000000 0.333333
vt 0.672094 0.333333
vt 0.838761 0.333333
vt 0.838761 0.500000
vt 0.672094 0.500000
vt 0.505427 0.500000
vt 0.505427 0.333333
vt 0.338761 0.500000
vt 0.338761 0.333333
vt 0.505427 0.166667
vt 0.672094 0.166667
vt 0.338761 0.166667
vt 0.505427 0.000000
vt 0.672094 0.000000
vn 0.000000 0.000000 1.000000
vn 0.000000 0.000000 1.000000
vn 0.000000 0.000000 1.000000
vn 0.000000 0.000000 1.000000
vn 0.000000 1.000000 0.000000
vn 0.000000 1.000000 0.000000
vn 0.000000 1.000000 0.000000
vn 0.000000 1.000000 0.000000
vn 0.000000 0.000000 -1.000000
vn 0.000000 0.000000 -1.000000
vn 0.000000 0.000000 -1.000000
vn 0.000000 0.000000 -1.000000
vn 0.000000 -1.000000 0.000000
vn 0.000000 -1.000000 0.000000
vn 0.000000 -1.000000 0.000000
vn 0.000000 -1.000000 0.000000
vn 1.000000 0.000000 0.000000
vn 1.000000 0.000000 0.000000
vn 1.000000 0.000000 0.000000
vn 1.000000 0.000000 0.000000
vn -1.000000 0.000000 0.000000
vn -1.000000 0.000000 0.000000
vn -1.000000 0.000000 0.000000
vn -1.000000 0.000000 0.000000
vn 0.000000 -1.000000 0.000000
vn 0.000000 -1.000000 0.000000
vn 0.000000 -1.000000 0.000000
vn 0.000000 -1.000000 0.000000
vn 0.000000 0.000000 1.000000
vn 0.000000 0.000000 1.000000
vn 0.000000 0.000000 1.000000
vn 0.000000 0.000000 1.000000
vn 0.000000 1.000000 0.000000
vn 0.000000 1.000000 0.000000
vn 0.000000 1.000000 0.000000
vn 0.000000 1.000000 0.000000
vn 0.000000 0.000000 -1.000000
vn 0.000000 0.000000 -1.000000
vn 0.000000 0.000000 -1.000000
vn 0.000000 0.000000 -1.000000
vn 0.000000 -1.000000 0.000000
vn 0.000000 -1.000000 0.000000
vn 0.000000 -1.000000 0.000000
vn 0.000000 -1.000000 0.000000
vn 0.000000 0.000000 1.000000
vn 0.000000 0.000000 1.000000
vn 0.000000 0.000000 1.000000
vn 0.000000 0.000000 1.000000
vn 0.000000 1.000000 0.000000
vn 0.000000 1.000000 0.000000
vn 0.000000 1.000000 0.000000
vn 0.000000 1.000000 0.000000
vn 0.000000 0.000000 -1.000000
vn 0.000000 0.000000 -1.000000
vn 0.000000 0.000000 -1.000000
vn 0.000000 0.000000 -1.000000
vn 1.000000 0.000000 0.000000
vn 1.000000 0.000000 0.000000
vn 1.000000 0.000000 0.000000
vn 1.000000 0.000000 0.000000
vn 0.000000 0.000000 -1.000000
vn 0.000000 0.000000 -1.000000
vn 0.000000 0.000000 -1.000000
vn 0.000000 0.000000 -1.000000
vn 0.000000 0.000000 1.000000
vn 0.000000 0.000000 1.000000
vn 0.000000 0.000000 1.000000
vn 0.000000 0.000000 1.000000
vn 0.000000 0.000000 -1.000000
vn 0.000000 0.000000 -1.000000
vn 0.000000 0.000000 -1.000000
vn 0.000000 0.000000 -1.000000
vn -1.000000 0.000000 0.000000
vn -1.000000 0.000000 0.000000
vn -1.000000 0.000000 0.000000
vn -1.000000 0.000000 0.000000
vn 0.000000 0.000000 1.000000
vn 0.000000 0.000000 1.000000
vn 0.000000 0.000000 1.000000
vn 0.000000 0.000000 1.000000
vn 1.000000 0.000000 0.000000
vn 1.000000 0.000000 0.000000
vn 1.000000 0.000000 0.000000
vn 1.000000 0.000000 0.000000
vn 0.000000 0.000000 -1.000000
vn 0.000000 0.000000 -1.000000
vn 0.000000 0.000000 -1.000000
vn 0.000000 0.000000 -1.000000
vn -1.000000 0.000000 0.000000
vn -1.000000 0.000000 0.000000
vn -1.000000 0.000000 0.000000
vn -1.000000 0.000000 0.000000
vn 0.000000 0.000000 1.000000
vn 0.000000 0.000000 1.000000
vn 0.000000 0.000000 1.000000
vn 0.000000 0.000000 1.000000
s off
g Wall2_LP Low_Poly v2
usemtl initialShadingGroup
f 1/41/1 2/42/2 4/43/3 3/44/4
f 3/21/5 4/22/6 6/23/7 5/24/8
f 5/54/9 6/55/10 8/56/11 7/57/12
f 7/25/13 8/26/14 2/27/15 1/28/16
f 2/1/17 8/2/18 6/3/19 4/4/20
f 13/5/21 14/6/22 15/7/23 16/8/24
f 7/25/25 1/28/26 10/29/27 9/30/28
f 1/41/29 3/44/30 11/45/31 10/46/32
f 23/33/33 24/34/34 25/35/35 26/36/36
f 5/54/37 7/57/38 9/58/39 12/59/40
f 9/30/41 10/29/42 14/31/43 13/32/44
f 10/46/45 11/45/46 15/49/47 14/50/48
f 20/37/49 19/38/50 21/39/51 22/40/52
f 12/59/53 9/58/54 13/60/55 16/61/56
f 3/11/57 5/12/58 18/13/59 17/14/60
f 5/54/61 12/59/62 19/62/63 18/63/64
f 11/45/65 3/44/66 17/47/67 20/48/68
f 12/59/69 16/61/70 21/64/71 19/62/72
f 16/8/73 15/7/74 22/9/75 21/10/76
f 15/49/77 11/45/78 20/48/79 22/53/80
f 17/14/81 18/13/82 24/15/83 23/16/84
f 18/63/85 19/62/86 25/65/87 24/66/88
f 19/17/89 20/18/90 26/19/91 25/20/92
f 20/48/93 17/47/94 23/51/95 26/52/96
