# This file uses centimeters as units for non-parametric coordinates.

mtllib Wall_LP.mtl
g default
v -1.000000 0.000000 1.000000
v 0.000000 0.000000 1.000000
v -1.000000 1.000000 1.000000
v 0.000000 1.000000 1.000000
v -1.000000 1.000000 0.000000
v 0.000000 1.000000 0.000000
v -1.000000 0.000000 0.000000
v 0.000000 0.000000 0.000000
v -1.000000 2.000000 1.000000
v 0.000000 2.000000 1.000000
v 0.000000 2.000000 0.000000
v -1.000000 2.000000 0.000000
v -2.000000 0.000000 0.000000
v -2.000000 0.000000 1.000000
v -2.000000 1.000000 1.000000
v -2.000000 1.000000 0.000000
v -2.000000 2.000000 1.000000
v -2.000000 2.000000 0.000000
v -3.000000 0.000000 0.000000
v -3.000000 0.000000 1.000000
v -3.000000 1.000000 1.000000
v -3.000000 1.000000 0.000000
v -3.000000 2.000000 1.000000
v -3.000000 2.000000 0.000000
v -2.000000 3.000000 1.000000
v -2.000000 3.000000 0.000000
v -3.000000 3.000000 0.000000
v -3.000000 3.000000 1.000000
v -2.000000 4.000000 1.000000
v -2.000000 4.000000 0.000000
v -3.000000 4.000000 0.000000
v -3.000000 4.000000 1.000000
v -1.000000 3.000000 1.000000
v 0.000000 3.000000 1.000000
v 0.000000 3.000000 0.000000
v -1.000000 3.000000 0.000000
vt 0.000000 0.571429
vt 0.142857 0.571429
vt 0.142857 0.714286
vt 0.000000 0.714286
vt 0.142857 0.857143
vt 0.000000 0.857143
vt 0.142857 1.000000
vt 0.000000 1.000000
vt 0.145518 0.428571
vt 0.288375 0.428571
vt 0.288375 0.571429
vt 0.145518 0.571429
vt 0.288375 0.714286
vt 0.145518 0.714286
vt 0.288375 0.857143
vt 0.145518 0.857143
vt 0.288375 1.000000
vt 0.145518 1.000000
vt 0.436554 0.571429
vt 0.579411 0.571429
vt 0.579411 0.714286
vt 0.436554 0.714286
vt 0.579411 0.857143
vt 0.436554 0.857143
vt 0.582072 0.571429
vt 0.724929 0.571429
vt 0.724929 0.714286
vt 0.582072 0.714286
vt 0.574796 0.000000
vt 0.717653 0.000000
vt 0.717653 0.142857
vt 0.574796 0.142857
vt 0.291036 0.714286
vt 0.291036 0.571429
vt 0.433893 0.571429
vt 0.433893 0.714286
vt 0.433893 0.857143
vt 0.291036 0.857143
vt 0.433893 1.000000
vt 0.291036 1.000000
vt 0.863171 0.000000
vt 0.863171 0.142857
vt 0.720314 0.142857
vt 0.720314 0.000000
vt 0.870447 0.571429
vt 0.870447 0.714286
vt 0.727590 0.714286
vt 0.727590 0.571429
vt 0.285714 0.000000
vt 0.428571 0.000000
vt 0.428571 0.142857
vt 0.285714 0.142857
vt 0.428571 0.285714
vt 0.285714 0.285714
vt 0.142857 0.142857
vt 0.142857 0.000000
vt 0.428571 0.428571
vt 0.285714 0.428571
vt 0.142857 0.285714
vt 0.000000 0.142857
vt 0.000000 0.000000
vt 0.000000 0.285714
vt 0.142857 0.428571
vt 0.000000 0.428571
vt 0.142857 0.571429
vt 0.000000 0.571429
vt 0.714992 0.428571
vt 0.857849 0.428571
vt 0.857849 0.571429
vt 0.714992 0.571429
vt 0.714992 0.285714
vt 0.857849 0.285714
vt 0.572135 0.571429
vt 0.572135 0.428571
vt 0.572135 0.285714
vt 0.714992 0.142857
vt 0.857849 0.142857
vt 0.429278 0.571429
vt 0.429278 0.428571
vt 0.429278 0.285714
vt 0.429278 0.142857
vt 0.572135 0.142857
vt 0.429278 0.000000
vt 0.572135 0.000000
vn 0.000000 0.000000 1.000000
vn 0.000000 0.000000 1.000000
vn 0.000000 0.000000 1.000000
vn 0.000000 0.000000 1.000000
vn 0.000000 1.000000 0.000000
vn 0.000000 1.000000 0.000000
vn 0.000000 1.000000 0.000000
vn 0.000000 1.000000 0.000000
vn 0.000000 0.000000 -1.000000
vn 0.000000 0.000000 -1.000000
vn 0.000000 0.000000 -1.000000
vn 0.000000 0.000000 -1.000000
vn 0.000000 -1.000000 0.000000
vn 0.000000 -1.000000 0.000000
vn 0.000000 -1.000000 0.000000
vn 0.000000 -1.000000 0.000000
vn 1.000000 0.000000 0.000000
vn 1.000000 0.000000 0.000000
vn 1.000000 0.000000 0.000000
vn 1.000000 0.000000 0.000000
vn -1.000000 0.000000 0.000000
vn -1.000000 0.000000 0.000000
vn -1.000000 0.000000 0.000000
vn -1.000000 0.000000 0.000000
vn 0.000000 0.000000 1.000000
vn 0.000000 0.000000 1.000000
vn 0.000000 0.000000 1.000000
vn 0.000000 0.000000 1.000000
vn 1.000000 0.000000 0.000000
vn 1.000000 0.000000 0.000000
vn 1.000000 0.000000 0.000000
vn 1.000000 0.000000 0.000000
vn 0.000000 0.000000 -1.000000
vn 0.000000 0.000000 -1.000000
vn 0.000000 0.000000 -1.000000
vn 0.000000 0.000000 -1.000000
vn -1.000000 0.000000 0.000000
vn -1.000000 0.000000 0.000000
vn -1.000000 0.000000 0.000000
vn -1.000000 0.000000 0.000000
vn 0.000000 -1.000000 0.000000
vn 0.000000 -1.000000 0.000000
vn 0.000000 -1.000000 0.000000
vn 0.000000 -1.000000 0.000000
vn 0.000000 0.000000 1.000000
vn 0.000000 0.000000 1.000000
vn 0.000000 0.000000 1.000000
vn 0.000000 0.000000 1.000000
vn 0.000000 0.000000 -1.000000
vn 0.000000 0.000000 -1.000000
vn 0.000000 0.000000 -1.000000
vn 0.000000 0.000000 -1.000000
vn 0.000000 0.000000 1.000000
vn 0.000000 0.000000 1.000000
vn 0.000000 0.000000 1.000000
vn 0.000000 0.000000 1.000000
vn 0.000000 1.000000 0.000000
vn 0.000000 1.000000 0.000000
vn 0.000000 1.000000 0.000000
vn 0.000000 1.000000 0.000000
vn 0.000000 0.000000 -1.000000
vn 0.000000 0.000000 -1.000000
vn 0.000000 0.000000 -1.000000
vn 0.000000 0.000000 -1.000000
vn 0.000000 -1.000000 0.000000
vn 0.000000 -1.000000 0.000000
vn 0.000000 -1.000000 0.000000
vn 0.000000 -1.000000 0.000000
vn 0.000000 0.000000 1.000000
vn 0.000000 0.000000 1.000000
vn 0.000000 0.000000 1.000000
vn 0.000000 0.000000 1.000000
vn 0.000000 0.000000 -1.000000
vn 0.000000 0.000000 -1.000000
vn 0.000000 0.000000 -1.000000
vn 0.000000 0.000000 -1.000000
vn 0.000000 0.000000 1.000000
vn 0.000000 0.000000 1.000000
vn 0.000000 0.000000 1.000000
vn 0.000000 0.000000 1.000000
vn 0.000000 1.000000 0.000000
vn 0.000000 1.000000 0.000000
vn 0.000000 1.000000 0.000000
vn 0.000000 1.000000 0.000000
vn 0.000000 0.000000 -1.000000
vn 0.000000 0.000000 -1.000000
vn 0.000000 0.000000 -1.000000
vn 0.000000 0.000000 -1.000000
vn 1.000000 0.000000 0.000000
vn 1.000000 0.000000 0.000000
vn 1.000000 0.000000 0.000000
vn 1.000000 0.000000 0.000000
vn 0.000000 0.000000 -1.000000
vn 0.000000 0.000000 -1.000000
vn 0.000000 0.000000 -1.000000
vn 0.000000 0.000000 -1.000000
vn -1.000000 0.000000 0.000000
vn -1.000000 0.000000 0.000000
vn -1.000000 0.000000 0.000000
vn -1.000000 0.000000 0.000000
vn 0.000000 0.000000 1.000000
vn 0.000000 0.000000 1.000000
vn 0.000000 0.000000 1.000000
vn 0.000000 0.000000 1.000000
vn 1.000000 0.000000 0.000000
vn 1.000000 0.000000 0.000000
vn 1.000000 0.000000 0.000000
vn 1.000000 0.000000 0.000000
vn 0.000000 0.000000 -1.000000
vn 0.000000 0.000000 -1.000000
vn 0.000000 0.000000 -1.000000
vn 0.000000 0.000000 -1.000000
vn -1.000000 0.000000 0.000000
vn -1.000000 0.000000 0.000000
vn -1.000000 0.000000 0.000000
vn -1.000000 0.000000 0.000000
vn 0.000000 0.000000 1.000000
vn 0.000000 0.000000 1.000000
vn 0.000000 0.000000 1.000000
vn 0.000000 0.000000 1.000000
vn 0.000000 0.000000 1.000000
vn 0.000000 0.000000 1.000000
vn 0.000000 0.000000 1.000000
vn 0.000000 0.000000 1.000000
vn 1.000000 0.000000 0.000000
vn 1.000000 0.000000 0.000000
vn 1.000000 0.000000 0.000000
vn 1.000000 0.000000 0.000000
vn 0.000000 0.000000 -1.000000
vn 0.000000 0.000000 -1.000000
vn 0.000000 0.000000 -1.000000
vn 0.000000 0.000000 -1.000000
vn -1.000000 0.000000 0.000000
vn -1.000000 0.000000 0.000000
vn -1.000000 0.000000 0.000000
vn -1.000000 0.000000 0.000000
s off
g Wall1_LP Low_Poly v2
usemtl initialShadingGroup
f 1/49/1 2/50/2 4/51/3 3/52/4
f 33/29/5 34/30/6 35/31/7 36/32/8
f 5/67/9 6/68/10 8/69/11 7/70/12
f 7/33/13 8/34/14 2/35/15 1/36/16
f 2/1/17 8/2/18 6/3/19 4/4/20
f 19/9/21 20/10/22 21/11/23 22/12/24
f 3/52/25 4/51/26 10/53/27 9/54/28
f 4/4/29 6/3/30 11/5/31 10/6/32
f 6/68/33 5/67/34 12/71/35 11/72/36
f 22/12/37 21/11/38 23/13/39 24/14/40
f 7/33/41 1/36/42 14/37/43 13/38/44
f 1/49/45 3/52/46 15/55/47 14/56/48
f 5/67/49 7/70/50 13/73/51 16/74/52
f 3/52/53 9/54/54 17/59/55 15/55/56
f 9/41/57 12/42/58 18/43/59 17/44/60
f 12/71/61 5/67/62 16/74/63 18/75/64
f 13/38/65 14/37/66 20/39/67 19/40/68
f 14/56/69 15/55/70 21/60/71 20/61/72
f 16/74/73 13/73/74 19/78/75 22/79/76
f 15/55/77 17/59/78 23/62/79 21/60/80
f 29/45/81 30/46/82 31/47/83 32/48/84
f 18/75/85 16/74/86 22/79/87 24/80/88
f 17/19/89 18/20/90 26/21/91 25/22/92
f 18/75/93 24/80/94 27/81/95 26/82/96
f 24/14/97 23/13/98 28/15/99 27/16/100
f 23/62/101 17/59/102 25/63/103 28/64/104
f 25/22/105 26/21/106 30/23/107 29/24/108
f 26/82/109 27/81/110 31/83/111 30/84/112
f 27/16/113 28/15/114 32/17/115 31/18/116
f 28/64/117 25/63/118 29/65/119 32/66/120
f 9/54/121 10/53/122 34/57/123 33/58/124
f 10/6/125 11/5/126 35/7/127 34/8/128
f 11/72/129 12/71/130 36/76/131 35/77/132
f 12/25/133 9/26/134 33/27/135 36/28/136
