# This file uses centimeters as units for non-parametric coordinates.

mtllib Wall2_HP.mtl
g default
v -1.000000 0.000000 1.000000
v 0.000000 0.000000 1.000000
v -1.000000 1.000000 1.000000
v -1.000000 1.000000 0.000000
v -1.000000 0.000000 0.000000
v 0.000000 0.000000 0.000000
v -2.000000 0.000000 0.000000
v -2.000000 0.000000 1.000000
v -2.000000 1.000000 1.000000
v -2.000000 1.000000 0.000000
v -3.000000 0.000000 0.000000
v -3.000000 0.000000 1.000000
v -3.000000 1.000000 1.000000
v -3.000000 1.000000 0.000000
v -1.000000 2.000000 1.000000
v -1.000000 2.000000 0.000000
v -2.000000 2.000000 0.000000
v -2.000000 2.000000 1.000000
v -1.000000 2.850015 1.000000
v -1.043930 2.956070 0.956070
v -1.149985 3.000000 0.850015
v -1.149985 3.000000 0.149985
v -1.043930 2.956070 0.043930
v -1.000000 2.850015 0.000000
v -1.850015 3.000000 0.149985
v -1.956070 2.956070 0.043930
v -2.000000 2.850015 0.000000
v -1.850015 3.000000 0.850015
v -1.956070 2.956070 0.956070
v -2.000000 2.850015 1.000000
v -1.000000 0.247078 1.000000
v 0.000000 0.247078 1.000000
v 0.000000 0.247078 0.000000
v -1.000000 0.247078 0.000000
v -2.000000 0.247078 0.000000
v -3.000000 0.247078 0.000000
v -3.000000 0.247078 1.000000
v -2.000000 0.247078 1.000000
v -1.000000 0.553851 0.000000
v 0.000000 0.553851 0.000000
v 0.000000 0.553851 1.000000
v -1.000000 0.553851 1.000000
v -2.000000 0.553851 1.000000
v -3.000000 0.553851 1.000000
v -3.000000 0.553851 0.000000
v -2.000000 0.553851 0.000000
v -1.000000 0.495670 1.000000
v 0.000000 0.495670 1.000000
v 0.000000 0.495670 0.000000
v -1.000000 0.495670 0.000000
v -2.000000 0.495670 0.000000
v -3.000000 0.495670 0.000000
v -3.000000 0.495670 1.000000
v -2.000000 0.495670 1.000000
v -1.000000 0.000000 1.050000
v 0.050000 0.000000 1.050000
v 0.050000 0.247078 1.050000
v -1.000000 0.247078 1.050000
v 0.050000 0.000000 -0.050000
v 0.050000 0.247078 -0.050000
v -1.000000 0.247078 -0.050000
v -1.000000 0.000000 -0.050000
v -2.000000 0.247078 -0.050000
v -2.000000 0.000000 -0.050000
v -3.050000 0.247078 -0.050000
v -3.050000 0.000000 -0.050000
v -3.050000 0.000000 1.050000
v -3.050000 0.247078 1.050000
v -2.000000 0.000000 1.050000
v -2.000000 0.247078 1.050000
v -1.000000 0.495670 0.970000
v -0.030000 0.495670 0.970000
v -0.030000 0.553851 0.970000
v -1.000000 0.553851 0.970000
v -1.000000 0.553851 0.030000
v -0.030000 0.553851 0.030000
v -0.030000 0.495670 0.030000
v -1.000000 0.495670 0.030000
v -2.970000 0.495670 0.030000
v -2.970000 0.495670 0.970000
v -2.970000 0.553851 0.970000
v -2.970000 0.553851 0.030000
v -2.000000 0.495670 0.970000
v -2.000000 0.553851 0.970000
v -2.000000 0.553851 0.030000
v -2.000000 0.495670 0.030000
v 0.000000 0.866169 1.000000
v -0.039198 0.960802 1.000000
v -0.133831 1.000000 1.000000
v 0.000000 0.866169 0.000000
v -0.133831 1.000000 0.000000
v -0.039198 0.960802 0.000000
v -2.960802 1.960802 0.000000
v -2.866168 2.000000 0.000000
v -3.000000 1.866169 0.000000
v -2.866168 2.000000 1.000000
v -2.960802 1.960802 1.000000
v -3.000000 1.866169 1.000000
vt 0.335195 0.666667
vt 0.501861 0.666667
vt 0.673955 0.000000
vt 0.840622 0.000000
vt 0.673955 0.166667
vt 0.167597 0.500000
vt 0.334264 0.500000
vt 0.167597 0.666667
vt 0.000000 0.666667
vt 0.000000 0.500000
vt 0.166667 0.500000
vt 0.166667 0.666667
vt 0.166667 0.833333
vt 0.000000 0.833333
vt 0.166667 1.000000
vt 0.000000 1.000000
vt 0.333333 0.000000
vt 0.500000 0.000000
vt 0.166667 0.166667
vt 0.166667 0.000000
vt 0.000000 0.166667
vt 0.000000 0.000000
vt 0.838761 0.500000
vt 0.672094 0.500000
vt 0.505427 0.500000
vt 0.505427 0.333333
vt 0.338761 0.500000
vt 0.672094 0.166667
vt 0.334264 0.808336
vt 0.527790 0.691664
vt 0.644461 0.691664
vt 0.644461 0.808336
vt 0.334264 0.666667
vt 0.167597 0.808336
vt 0.505427 0.166667
vt 0.672094 0.024998
vt 0.670390 0.500000
vt 0.837056 0.500000
vt 0.670390 0.641669
vt 0.333333 0.333333
vt 0.166667 0.475002
vt 0.505427 0.024998
vt 0.527790 0.808336
vt 0.837056 0.641669
vt 0.333333 0.475002
vt 0.502792 0.666667
vt 0.333333 0.500000
vt 0.167597 0.833333
vt 0.672094 0.000000
vt 0.669459 0.666667
vt 0.334264 0.833333
vt 0.670390 0.666667
vt 0.669459 0.833333
vt 0.505427 0.000000
vt 0.166667 0.500000
vt 0.502792 0.833333
vt 0.837056 0.666667
vt 0.333333 0.041180
vt 0.500000 0.041180
vt 0.335195 0.707846
vt 0.838761 0.458820
vt 0.501861 0.707846
vt 0.672094 0.458820
vt 0.505427 0.458820
vt 0.673955 0.041180
vt 0.338761 0.458820
vt 0.840622 0.041180
vt 0.000000 0.041180
vt 0.166667 0.041180
vt 0.672094 0.407691
vt 0.838761 0.407691
vt 0.335195 0.758975
vt 0.333333 0.092308
vt 0.166667 0.092308
vt 0.840622 0.092308
vt 0.000000 0.092308
vt 0.673955 0.092308
vt 0.338761 0.407691
vt 0.505427 0.407691
vt 0.333333 0.082171
vt 0.500000 0.082171
vt 0.335195 0.748838
vt 0.838761 0.417829
vt 0.501861 0.748838
vt 0.672094 0.417829
vt 0.505427 0.417829
vt 0.673955 0.082171
vt 0.338761 0.417829
vt 0.840622 0.082171
vt 0.000000 0.082171
vt 0.166667 0.082171
vt 0.333333 0.000000
vt 0.500000 0.000000
vt 0.500000 0.041180
vt 0.333333 0.041180
vt 0.335195 0.666667
vt 0.501861 0.666667
vt 0.501861 0.707846
vt 0.335195 0.707846
vt 0.672094 0.458820
vt 0.838761 0.458820
vt 0.838761 0.500000
vt 0.672094 0.500000
vt 0.505427 0.458820
vt 0.505427 0.500000
vt 0.338761 0.458820
vt 0.338761 0.500000
vt 0.673955 0.000000
vt 0.840622 0.000000
vt 0.840622 0.041180
vt 0.673955 0.041180
vt 0.166667 0.041180
vt 0.000000 0.041180
vt 0.000000 0.000000
vt 0.166667 0.000000
vt 0.333333 0.082171
vt 0.500000 0.082171
vt 0.500000 0.092308
vt 0.333333 0.092308
vt 0.672094 0.407691
vt 0.838761 0.407691
vt 0.838761 0.417829
vt 0.672094 0.417829
vt 0.335195 0.748838
vt 0.501861 0.748838
vt 0.501861 0.758975
vt 0.335195 0.758975
vt 0.673955 0.082171
vt 0.840622 0.082171
vt 0.840622 0.092308
vt 0.673955 0.092308
vt 0.166667 0.082171
vt 0.166667 0.092308
vt 0.505427 0.407691
vt 0.505427 0.417829
vt 0.000000 0.082171
vt 0.000000 0.092308
vt 0.338761 0.407691
vt 0.338761 0.417829
vt 0.335195 0.666667
vt 0.501861 0.522305
vt 0.501861 0.666667
vt 0.501861 0.758975
vt 0.335195 0.811028
vt 0.502792 0.500000
vt 0.669459 0.500000
vt 0.502792 0.644361
vt 0.840622 0.166667
vt 0.673955 0.311028
vt 0.335195 0.522305
vt 0.501861 0.811028
vt 0.669459 0.644361
vt 0.840622 0.311028
vt 0.333333 0.166667
vt 0.500000 0.092308
vt 0.500000 0.144361
vt 0.477695 0.166667
vt 0.838761 0.355638
vt 0.672094 0.333333
vt 0.816455 0.333333
vt 0.361066 0.166667
vt 0.338761 0.333333
vt 0.338761 0.188972
vt 0.166667 0.333333
vt 0.022305 0.333333
vt 0.000000 0.311028
vt 0.500000 0.166667
vt 0.335195 0.833333
vt 0.335195 0.500000
vt 0.501861 0.833333
vt 0.838761 0.333333
vt 0.501861 0.500000
vt 0.338761 0.166667
vt 0.673955 0.333333
vt 0.669459 0.666667
vt 0.840622 0.333333
vt 0.000000 0.333333
vt 0.502792 0.666667
vn 0.000000 0.000000 1.000000
vn 0.000000 0.000000 1.000000
vn 0.000000 0.000000 1.000000
vn 0.000000 0.000000 1.000000
vn 0.000000 1.000000 0.000000
vn 0.040764 0.999169 0.000000
vn 0.040764 0.999169 0.000000
vn 0.000000 1.000000 0.000000
vn 0.000000 0.000000 -1.000000
vn 0.000000 0.000000 -1.000000
vn 0.000000 0.000000 -1.000000
vn 0.000000 0.000000 -1.000000
vn 0.000000 -1.000000 0.000000
vn 0.000000 -1.000000 0.000000
vn 0.000000 -1.000000 0.000000
vn 0.000000 -1.000000 0.000000
vn 1.000000 0.000000 0.000000
vn 1.000000 0.000000 0.000000
vn 1.000000 0.000000 0.000000
vn 1.000000 0.000000 0.000000
vn -1.000000 0.000004 0.000000
vn -1.000000 0.000004 0.000000
vn -1.000000 0.000004 0.000000
vn -1.000000 0.000004 0.000000
vn 0.000000 -1.000000 0.000000
vn 0.000000 -1.000000 0.000000
vn 0.000000 0.000000 1.000000
vn 0.000000 0.000000 1.000000
vn 0.000000 0.000000 1.000000
vn 0.000000 0.000000 1.000000
vn 0.000000 0.000000 -1.000000
vn 0.000000 0.000000 -1.000000
vn 0.000000 0.000000 -1.000000
vn 0.000000 0.000000 -1.000000
vn 0.000000 -1.000000 0.000000
vn 0.000000 -1.000000 0.000000
vn 0.000000 0.000000 1.000000
vn 0.000000 0.000000 1.000000
vn 0.000000 0.000000 1.000000
vn 0.000000 0.000000 1.000000
vn 0.000000 1.000000 0.000000
vn 0.000000 1.000000 0.000000
vn -0.040764 0.999169 0.000000
vn -0.040764 0.999169 0.000000
vn 0.000000 0.000000 -1.000000
vn 0.000000 0.000000 -1.000000
vn 0.000000 0.000000 -1.000000
vn 0.000000 0.000000 -1.000000
vn 1.000000 0.000000 0.000000
vn 1.000000 0.000000 0.000000
vn 1.000000 0.000000 0.000000
vn 1.000000 0.000000 0.000000
vn 0.000000 0.000000 -1.000000
vn 0.000000 0.000000 -1.000000
vn 0.000000 0.000000 -1.000000
vn 0.000000 0.000000 -1.000000
vn 0.000000 0.000000 1.000000
vn 0.000000 0.000000 1.000000
vn 0.000000 0.000000 1.000000
vn 0.000000 0.000000 1.000000
vn -1.000000 0.000000 0.000000
vn -1.000000 0.000000 0.000000
vn -0.999169 0.040764 0.000000
vn -0.999169 0.040764 0.000000
vn 0.070019 0.995085 0.070018
vn 0.382683 0.923880 0.000000
vn 0.382683 0.923880 0.000000
vn 0.070019 0.995085 -0.070018
vn 0.923880 0.382683 0.000000
vn 0.999397 0.034714 0.000000
vn 0.999397 0.034714 0.000000
vn 0.923880 0.382683 0.000000
vn -0.070019 0.995085 -0.070018
vn -0.070019 0.995085 0.070018
vn 0.000000 0.034714 -0.999397
vn 0.000000 0.034714 -0.999397
vn -1.000000 0.000000 0.000000
vn -1.000000 0.000000 0.000000
vn -0.999397 0.034714 0.000000
vn -0.999397 0.034714 0.000000
vn 0.000000 0.034714 0.999397
vn 0.000000 0.034714 0.999397
vn 0.000000 0.923880 -0.382683
vn 0.000000 0.923880 -0.382683
vn 0.000000 0.382684 -0.923880
vn 0.000000 0.382684 -0.923880
vn -0.382683 0.923880 0.000000
vn -0.382683 0.923880 0.000000
vn -0.923880 0.382683 0.000000
vn -0.923880 0.382683 0.000000
vn 0.000000 0.382684 0.923880
vn 0.000000 0.382684 0.923880
vn 0.000000 0.923880 0.382683
vn 0.000000 0.923880 0.382683
vn 0.000000 0.000000 1.000000
vn 0.000000 0.000000 1.000000
vn 0.000000 0.000000 1.000000
vn 0.000000 0.000000 1.000000
vn 1.000000 0.000000 0.000000
vn 1.000000 0.000000 0.000000
vn 1.000000 0.000000 0.000000
vn 1.000000 0.000000 0.000000
vn 0.000000 0.000000 -1.000000
vn 0.000000 0.000000 -1.000000
vn 0.000000 0.000000 -1.000000
vn 0.000000 0.000000 -1.000000
vn 0.000000 0.000000 -1.000000
vn 0.000000 0.000000 -1.000000
vn 0.000000 0.000000 -1.000000
vn 0.000000 0.000000 -1.000000
vn 0.000000 0.000000 -1.000000
vn 0.000000 0.000000 -1.000000
vn 0.000000 0.000000 -1.000000
vn 0.000000 0.000000 -1.000000
vn -1.000000 0.000000 0.000000
vn -1.000000 0.000000 0.000000
vn -1.000000 0.000000 0.000000
vn -1.000000 0.000000 0.000000
vn 0.000000 0.000000 1.000000
vn 0.000000 0.000000 1.000000
vn 0.000000 0.000000 1.000000
vn 0.000000 0.000000 1.000000
vn 0.000000 0.000000 1.000000
vn 0.000000 0.000000 1.000000
vn 0.000000 0.000000 1.000000
vn 0.000000 0.000000 1.000000
vn 1.000000 0.000000 0.000000
vn 1.000000 0.000000 0.000000
vn 0.995393 0.095878 0.000000
vn 0.995393 0.095878 0.000000
vn 0.000000 0.000000 1.000000
vn 0.000000 0.000000 1.000000
vn 0.000000 0.000000 1.000000
vn 0.000000 0.000000 1.000000
vn 0.000000 0.000000 1.000000
vn 0.000000 0.000000 1.000000
vn 0.000000 0.000000 1.000000
vn -1.000000 0.000000 0.000000
vn -1.000000 0.000000 0.000000
vn -1.000000 0.000000 0.000000
vn -1.000000 0.000000 0.000000
vn 0.000000 0.000000 -1.000000
vn 0.000000 0.000000 -1.000000
vn 0.000000 0.000000 -1.000000
vn 0.000000 0.000000 -1.000000
vn 0.000000 0.000000 -1.000000
vn 0.000000 0.000000 -1.000000
vn 0.000000 0.000000 -1.000000
vn 0.000000 0.000000 1.000000
vn 0.000000 0.000000 1.000000
vn 0.000000 0.000000 1.000000
vn 0.000000 0.000000 1.000000
vn 1.000000 0.000000 0.000000
vn 1.000000 0.000000 0.000000
vn 1.000000 0.000000 0.000000
vn 1.000000 0.000000 0.000000
vn 0.000000 0.000000 -1.000000
vn 0.000000 0.000000 -1.000000
vn 0.000000 0.000000 -1.000000
vn 0.000000 0.000000 -1.000000
vn 0.000000 0.000000 -1.000000
vn 0.000000 0.000000 -1.000000
vn 0.000000 0.000000 -1.000000
vn 0.000000 0.000000 -1.000000
vn 0.000000 0.000000 -1.000000
vn 0.000000 0.000000 -1.000000
vn 0.000000 0.000000 -1.000000
vn 0.000000 0.000000 -1.000000
vn -1.000000 0.000000 0.000000
vn -1.000000 0.000000 0.000000
vn -1.000000 0.000000 0.000000
vn -1.000000 0.000000 0.000000
vn 0.000000 0.000000 1.000000
vn 0.000000 0.000000 1.000000
vn 0.000000 0.000000 1.000000
vn 0.000000 0.000000 1.000000
vn 0.000000 0.000000 1.000000
vn 0.000000 0.000000 1.000000
vn 0.000000 0.000000 1.000000
vn 0.000000 0.000000 1.000000
vn 0.000000 -1.000000 0.000000
vn 0.000000 -1.000000 0.000000
vn 0.000000 1.000000 0.000000
vn 0.000000 1.000000 0.000000
vn 0.000000 1.000000 0.000000
vn 0.000000 1.000000 0.000000
vn 0.000000 -1.000000 0.000000
vn 0.000000 1.000000 0.000000
vn 0.000000 1.000000 0.000000
vn 0.000000 1.000000 0.000000
vn 0.000000 1.000000 0.000000
vn 0.000000 -1.000000 0.000000
vn 0.000000 1.000000 0.000000
vn 0.000000 1.000000 0.000000
vn 0.000000 -1.000000 0.000000
vn 0.000000 1.000000 0.000000
vn 0.000000 1.000000 0.000000
vn 0.000000 -1.000000 0.000000
vn 0.000000 -1.000000 0.000000
vn 0.000000 1.000000 0.000000
vn 0.000000 1.000000 0.000000
vn 0.000000 1.000000 0.000000
vn 0.000000 1.000000 0.000000
vn 0.000000 -1.000000 0.000000
vn 0.000000 1.000000 0.000001
vn 0.000000 1.000000 0.000001
vn 0.000000 1.000000 0.000001
vn 0.000000 1.000000 0.000001
vn 0.000000 -1.000000 -0.000000
vn 0.000000 -1.000000 -0.000000
vn 0.000000 -1.000000 -0.000000
vn 0.000000 -1.000000 -0.000000
vn 0.000000 -1.000000 0.000000
vn 0.000000 -1.000000 0.000000
vn 0.000000 -1.000000 0.000000
vn 0.000000 -1.000000 0.000000
vn 0.000000 1.000000 -0.000000
vn 0.000000 1.000000 -0.000000
vn 0.000000 1.000000 -0.000000
vn 0.000000 1.000000 -0.000000
vn 0.000000 1.000000 0.000000
vn 0.000000 1.000000 0.000000
vn 0.000000 1.000000 0.000000
vn 0.000000 1.000000 0.000000
vn 0.000000 -1.000000 0.000000
vn 0.000000 -1.000000 -0.000000
vn 0.000000 -1.000000 -0.000000
vn 0.000000 -1.000000 0.000000
vn 0.000000 1.000000 0.000000
vn 0.000000 1.000000 0.000000
vn 0.000000 -1.000000 0.000000
vn 0.000000 -1.000000 0.000000
vn 0.000000 -1.000000 -0.000000
vn 0.000000 -1.000000 -0.000000
vn 0.000000 1.000000 0.000000
vn 0.000000 1.000000 0.000000
vn 0.382683 0.923880 0.000000
vn 0.382683 0.923880 0.000000
vn 0.923880 0.382683 0.000000
vn 0.923880 0.382683 0.000000
vn -0.382683 0.923880 0.000000
vn -0.382683 0.923880 0.000000
vn -0.923879 0.382684 0.000000
vn -0.923879 0.382684 0.000000
vn 0.000000 0.000000 1.000000
vn 0.000000 0.000000 1.000000
vn 0.000000 0.000000 1.000000
vn 0.000000 0.000000 1.000000
vn 0.000000 0.000000 -1.000000
vn 0.000000 0.000000 -1.000000
vn 0.000000 0.000000 -1.000000
vn 0.000000 0.000000 -1.000000
vn 0.000000 0.000000 -1.000000
vn 0.000000 0.000000 -1.000000
vn 0.000000 0.000000 -1.000000
vn 0.000000 0.000000 1.000000
vn 0.000000 0.000000 1.000000
vn 0.000000 0.000000 1.000000
s off
g Wall2_HP High_Poly v2
usemtl initialShadingGroup
f 71/116/1 72/117/2 73/118/3 74/119/4
s 1
f 3/140/5 89/150/6 91/141/7 4/142/8
s off
f 75/120/9 76/121/10 77/122/11 78/123/12
s 2
f 5/9/13 6/10/14 2/11/15 1/12/16
s off
f 72/124/17 77/125/18 76/126/19 73/127/20
f 79/128/21 80/129/22 81/130/23 82/131/24
s 2
f 5/9/13 1/12/16 8/13/25 7/14/26
s off
f 83/132/27 71/116/28 74/119/29 84/133/30
f 85/134/31 75/120/32 78/123/33 86/135/34
s 2
f 7/14/26 8/13/25 12/15/35 11/16/36
s off
f 80/136/37 83/132/38 84/133/39 81/137/40
s 5
f 18/145/41 17/146/42 94/152/43 96/147/44
s off
f 82/138/45 85/134/46 86/135/47 79/139/48
s 6
f 3/6/49 4/7/50 16/33/51 15/8/52
s 7
f 4/159/53 10/26/54 17/35/55 16/28/56
s 8
f 9/19/57 3/154/58 15/40/59 18/164/60
s 9
f 14/5/61 13/148/62 98/153/63 95/149/64
s 10
f 21/30/65 20/46/66 23/50/67 22/31/68
s 6
f 20/48/69 19/34/70 24/29/71 23/51/72
s 10
f 21/30/65 22/31/68 25/32/73 28/43/74
s 6
f 15/8/52 16/33/51 24/29/71 19/34/70
s 7
f 16/28/56 17/35/55 27/42/75 24/36/76
s 11
f 17/37/77 18/38/78 30/44/79 27/39/80
s 8
f 18/164/60 15/40/59 19/45/81 30/41/82
s 10
f 22/31/68 23/50/83 26/53/84 25/32/73
s 7
f 23/49/85 24/36/76 27/42/75 26/54/86
s 10
f 25/32/73 26/53/87 29/56/88 28/43/74
s 11
f 26/52/89 27/39/80 30/44/79 29/57/90
s 8
f 19/45/81 20/47/91 29/55/92 30/41/82
s 10
f 20/46/93 21/30/65 28/43/74 29/56/94
s off
f 55/92/95 56/93/96 57/94/97 58/95/98
f 56/96/99 59/97/100 60/98/101 57/99/102
f 61/100/103 60/101/104 59/102/105 62/103/106
f 63/104/107 61/100/108 62/103/109 64/105/110
f 65/106/111 63/104/112 64/105/113 66/107/114
f 66/108/115 67/109/116 68/110/117 65/111/118
f 69/115/119 70/112/120 68/113/121 67/114/122
f 55/92/123 58/95/124 70/112/125 69/115/126
s 12
f 41/72/127 40/143/128 90/151/129 87/144/130
s 13
f 43/74/131 42/73/132 3/154/133 9/19/134
s 8
f 44/76/135 43/74/136 9/19/57 13/21/137
s off
f 45/77/138 44/75/139 13/148/140 14/5/141
s 7
f 10/26/54 46/79/142 45/78/143 14/162/144
s 14
f 4/159/145 39/70/146 46/79/147 10/26/148
s off
f 31/58/149 32/59/150 48/81/151 47/80/152
f 32/60/153 33/62/154 49/84/155 48/82/156
f 50/85/157 49/83/158 33/61/159 34/63/160
f 51/86/161 50/85/162 34/63/163 35/64/164
f 52/88/165 51/86/166 35/64/167 36/66/168
f 36/65/169 37/67/170 53/89/171 52/87/172
f 37/68/173 38/69/174 54/91/175 53/90/176
f 38/69/177 31/58/178 47/80/179 54/91/180
s 2
f 1/17/16 2/18/15 56/93/181 55/92/182
s 15
f 32/59/183 31/58/184 58/95/185 57/94/186
s 2
f 2/1/15 6/2/14 59/97/187 56/96/181
s 15
f 33/62/188 32/60/183 57/99/186 60/98/189
f 34/63/190 33/61/188 60/101/189 61/100/191
s 2
f 6/23/14 5/24/13 62/103/192 59/102/187
s 15
f 35/64/193 34/63/190 61/100/191 63/104/194
s 2
f 5/24/13 7/25/26 64/105/195 62/103/192
s 15
f 36/66/196 35/64/193 63/104/194 65/106/197
s 2
f 7/25/26 11/27/36 66/107/198 64/105/195
f 11/3/36 12/4/35 67/109/199 66/108/198
s 15
f 37/67/200 36/65/196 65/111/197 68/110/201
f 38/69/202 37/68/200 68/113/201 70/112/203
s 2
f 12/22/35 8/20/25 69/115/204 67/114/199
s 15
f 31/58/184 38/69/202 70/112/203 58/95/185
s 2
f 8/20/25 1/17/16 55/92/182 69/115/204
s 16
f 47/80/205 48/81/206 72/117/207 71/116/208
s 17
f 41/155/209 42/73/210 74/119/211 73/118/212
f 39/70/213 40/71/214 76/121/215 75/120/216
s 16
f 49/83/217 50/85/218 78/123/219 77/122/220
f 48/82/206 49/84/217 77/125/220 72/124/207
s 17
f 40/143/214 41/72/209 73/127/212 76/126/215
s 16
f 52/87/221 53/89/222 80/129/223 79/128/224
s 17
f 44/75/225 45/77/226 82/131/227 81/130/228
s 16
f 54/91/229 47/80/205 71/116/208 83/132/230
s 17
f 42/73/210 43/74/231 84/133/232 74/119/211
f 46/79/233 39/70/213 75/120/216 85/134/234
s 16
f 50/85/218 51/86/235 86/135/236 78/123/219
f 53/90/222 54/91/229 83/132/230 80/136/223
s 17
f 43/74/231 44/76/225 81/137/228 84/133/232
f 45/78/226 46/79/233 85/134/234 82/138/227
s 16
f 51/86/235 52/88/221 79/139/224 86/135/236
s 1
f 89/150/6 88/169/237 92/172/238 91/141/7
s 12
f 88/168/239 87/144/130 90/151/129 92/170/240
s 5
f 94/152/43 93/175/241 97/178/242 96/147/44
s 9
f 93/174/243 95/149/64 98/153/63 97/176/244
s 13
f 3/154/133 42/73/132 41/155/245 87/156/246 88/167/247 89/157/248
s 14
f 90/158/249 40/71/250 39/70/146 4/159/145 91/160/251 92/171/252
s 7
f 93/173/253 94/161/254 17/35/55 10/26/54 14/162/144 95/163/255
s 8
f 13/21/137 9/19/57 18/164/60 96/165/256 97/177/257 98/166/258
